<svg xmlns="http://www.w3.org/2000/svg" viewBox="0 0 300.52 384.63"><defs><style>.cls-1{fill:#263238;}.cls-2{fill:#fff;}.cls-3{fill:#e8505b;}.cls-4,.cls-7{opacity:0.3;}.cls-5{fill:#ffbe9d;}.cls-6{fill:#eb996e;}.cls-8{opacity:0.5;}.cls-9{fill:#455a64;}.cls-10{fill:#fafafa;}.cls-11{fill:#e0e0e0;}.cls-12{font-size:33.25px;font-family:Papyrus-Regular, Papyrus;}</style></defs><g id="Layer_2" data-name="Layer 2"><g id="Device"><path class="cls-1" d="M31.56,32.84C40.38,12.27,71.65,6.29,90.69,2.64,101,.67,111.19.5,131.16.23c42.32-.57,63.83-.69,80.59,7.3,16.58,7.89,26,19,36,30.75,7.55,8.9,29.77,35.75,34.49,74,2.64,21.38-2.84,24.91,1.53,47.12,5.14,26.09,14.87,32.18,16.52,44.41C305.4,241.62,229.69,311.39,145.89,306,81.15,301.75,26.15,253.61,9.05,198.86c-3.22-10.29-20.47-65.52,3.35-96.58,4.75-6.18,12.35-13,16.68-26.55C35.74,54.93,25.49,47,31.56,32.84Z"/><path class="cls-2" d="M97,45.78a25.2,25.2,0,0,0-1.46-7.94c-2.35-5.3-6-8.94-12.15-9.72a17.47,17.47,0,0,0-5.26.16h0l-.21,0c-.43.08-.86.17-1.28.28h0a16.77,16.77,0,0,0-4.76,2.05c-5.09,3.25-6.52,8-6,13.7A25.49,25.49,0,0,0,68.52,52c.56.94,1.43,1.85,1.37,2.11s-.88.92.06,3.71c.72,2.16,4.7,2,6.48,1.75a1,1,0,0,1,1.08.72l1.12,4.16a1,1,0,0,0,1.19.7l.51-.11a.92.92,0,0,0,.72-1.1l-.23-1a.91.91,0,0,1,.71-1.1,1,1,0,0,1,1.19.71L83.08,64a1,1,0,0,0,1.19.7l.51-.11a.91.91,0,0,0,.7-1.13l-.33-1.26a.9.9,0,0,1,.7-1.12L86,61h0a1,1,0,0,1,1.19.71L87.52,63a1,1,0,0,0,1.19.71l.5-.11a.91.91,0,0,0,.72-1.12l-.35-1.35A.91.91,0,0,1,90.29,60a1,1,0,0,1,1.18.68l.28,1a1,1,0,0,0,1.18.68l.52-.11a.92.92,0,0,0,.71-1.12L93.08,56.9a.9.9,0,0,1,.6-1.09c1.69-.56,5.33-2,4.9-4.25-.55-2.88-1.53-3-1.8-3.33S96.92,46.85,97,45.78Z"/><path class="cls-1" d="M79.9,47a4.26,4.26,0,0,1-3,5.41,4.72,4.72,0,0,1-5.72-3,4.26,4.26,0,0,1,3-5.41A4.71,4.71,0,0,1,79.9,47Z"/><ellipse class="cls-1" cx="89.38" cy="44.37" rx="4.37" ry="4.59" transform="translate(27.04 122.29) rotate(-77.74)"/><path class="cls-1" d="M83.22,49.4c-.12.07-1.9,3.38-1.1,5.71a2,2,0,0,0,2.54,1.25.7.7,0,0,0,.54-.77,1.22,1.22,0,0,0,1.94-.36C88.6,53.07,83.22,49.4,83.22,49.4Z"/><path class="cls-2" d="M237.54,149.33h0l-.21,0Z"/><path class="cls-2" d="M266.2,105.54c-.87-10.43-8.09-20.87-18.41-22.59-5.7-1-12.46,1.55-14.25,7-2.21,6.78,3.81,14.7.42,21-2.65,4.9-9.34,5.61-13.81,8.93-6.33,4.7-7.08,14.77-2.53,21.2s12.09,9.29,19.89,8.24c7.5-1.79,16-7.58,20-14.17C262.83,126.18,267.06,116,266.2,105.54Z"/><path class="cls-3" d="M208.52,156.9,192.68,150H117.94s-5.64,3.47-10.56,5.74c-2.9,1.33-17.47,10.46-17.47,10.46l10.1,104,118,.31L226,164Z"/><path class="cls-3" d="M89.91,166.23s-23,26.1-23.77,28.23-6.93,13.07-6.93,13.07-9.6,4.53-10.93,6.93-4,7.46-4,7.46-18.91,22.75-20.69,30.29c-2,8.34,2.66,18.35,2.66,18.35H85.8l4.58-19.42h0a1.62,1.62,0,0,0-1.21-2.35c-3.28-.9-5.75-1.3-8-3.75l.42-3.12,11-8.48,10-7.69Z"/><path class="cls-3" d="M218,219.39c0,.27,8.83,6.53,8.83,6.53L235,238.31a37.76,37.76,0,0,1-6.08,4.66h0l-5.51,1.9-.29,1.29.87,4.52c1.68,8.68,8.73,17.9,17.38,19.74l1.19,0,40.94.18c3.51-5.67,6.87-10.14,6.3-16.15l-1-10.07L273,223.09l-23.38-33.77S233.53,167.08,226,164L218,183Z"/><path class="cls-1" d="M96.8,197.08a9,9,0,0,1-.09-1.14c0-.73-.1-1.78-.21-3.09a71.68,71.68,0,0,0-1.63-10,70.89,70.89,0,0,0-3.12-9.71c-.49-1.21-.91-2.18-1.21-2.85a6.67,6.67,0,0,1-.43-1.05,6.5,6.5,0,0,1,.55,1c.34.65.8,1.61,1.32,2.81a60.53,60.53,0,0,1,4.76,19.84c.08,1.3.11,2.37.1,3.1A6,6,0,0,1,96.8,197.08Z"/><path class="cls-1" d="M214.75,197.39s0-.11,0-.32v-.93c0-.41,0-.9,0-1.47s0-1.23.12-1.95c.12-1.44.35-3.15.7-5a55.37,55.37,0,0,1,1.56-6,52.94,52.94,0,0,1,2.29-5.79,46.92,46.92,0,0,1,2.39-4.48c.36-.63.73-1.17,1-1.65s.6-.89.84-1.22l.56-.74c.13-.17.2-.26.21-.25a1.25,1.25,0,0,1-.16.29l-.5.78c-.22.34-.49.75-.78,1.24s-.65,1-1,1.67c-.72,1.24-1.51,2.77-2.32,4.49a61.38,61.38,0,0,0-2.25,5.76,56.69,56.69,0,0,0-1.56,6c-.37,1.86-.63,3.56-.77,5-.1.72-.13,1.37-.18,1.94s-.08,1.06-.1,1.46,0,.68-.05.93A1.64,1.64,0,0,1,214.75,197.39Z"/><path class="cls-1" d="M60.7,221a1.09,1.09,0,0,1,.32,0c.2,0,.5.08.88.18a21.37,21.37,0,0,1,3.17,1,24.48,24.48,0,0,1,9,6.22,30.72,30.72,0,0,1,3.64,4.83,37.66,37.66,0,0,1,2.25,4.39c.56,1.28,1,2.34,1.26,3.07.13.33.23.61.32.84a1.31,1.31,0,0,1,.08.31,1.83,1.83,0,0,1-.15-.28c-.1-.23-.22-.5-.37-.82-.32-.72-.77-1.76-1.37-3a41.71,41.71,0,0,0-2.29-4.33,32.59,32.59,0,0,0-3.62-4.76A25.53,25.53,0,0,0,65,222.49a25.12,25.12,0,0,0-3.11-1.11A11.71,11.71,0,0,1,60.7,221Z"/><g class="cls-4"><path d="M81.19,244.92c-2.42-7.26-10.86-12.41-16.07-16.7-3.09-2.54-7-4.68-10.93-4a4.38,4.38,0,0,0-3.49,2.37c-.54,1.37.5,3.27,2,3.11-3.26,1.73-6,3.08-9.26,4.81a2.38,2.38,0,0,0-1.54,1.69c-.14.56-.34,1.05.21.88a28.1,28.1,0,0,1,12.4-1.21s1.52-.44,7-.24c5.91.22,9.67.29,19.69,9.3"/></g><g class="cls-4"><path d="M234.79,238.22a24.39,24.39,0,0,1,13.69-12.88c3.63-1.48,8-2,11.27.22,1.65,1.11,3.15,3.09,2.06,5.64-1.36,3.19-5.89,2.58-7.07,2.72a27,27,0,0,0-9.26-.14c-4.36.87-5.52,1.81-10.48,4.53"/></g><path class="cls-1" d="M90.38,251.14s.08-.22.15-.65a1,1,0,0,0,0-.35l0-.2-.09-.21a1.67,1.67,0,0,0-.79-.67,20.24,20.24,0,0,0-2.89-.85,17.25,17.25,0,0,1-1.8-.6,12.9,12.9,0,0,1-1.89-1,28,28,0,0,1-3.79-3.06A35.71,35.71,0,0,0,75,240a26.65,26.65,0,0,0-11.84-4.23,32.12,32.12,0,0,0-12.58,1.13,41.82,41.82,0,0,0-9.5,4.15,52.69,52.69,0,0,0-5.8,3.94c-.66.51-1.16.91-1.5,1.19l-.39.3c-.09.07-.14.11-.14.1s0,0,.12-.12l.36-.34c.33-.29.82-.71,1.46-1.24a49.29,49.29,0,0,1,5.77-4,40.72,40.72,0,0,1,9.54-4.24,31.92,31.92,0,0,1,12.7-1.17,26.72,26.72,0,0,1,12,4.3,35.8,35.8,0,0,1,4.29,3.58,28.88,28.88,0,0,0,3.73,3.07c2.47,1.69,5,1.79,6.51,2.54a1.75,1.75,0,0,1,.83.75l.08.22,0,.22a1.09,1.09,0,0,1,0,.37,1.7,1.7,0,0,1-.15.48A1,1,0,0,1,90.38,251.14Z"/><g class="cls-4"><path d="M79.16,249.77c-4.68,1.91-8.64,6.14-10.9,10.67a13,13,0,0,0-1.19,5.34A3.5,3.5,0,0,0,68.61,269a19.85,19.85,0,0,0,3.25,1.63c2.58-.08,10.87.05,13.45,0,3.36-.11,4.88-1.88,4.91-2.11.16-1.67,2.53-5.93,2.9-9.08,0-.16,0-.33.06-.51a8.9,8.9,0,0,0-9.77-10.12A16.11,16.11,0,0,0,79.16,249.77Z"/></g><path class="cls-5" d="M79.16,249.77l11.22,1.37s19.75-5,23.6-3.92c3.47.95,15.53,10.83,17.89,12.79a1.62,1.62,0,0,1,.54.84h0a2.8,2.8,0,0,1-1.9,3.37l-.28.08.08.4a4.78,4.78,0,0,1,0,1.56,1.88,1.88,0,0,1-3.55.45l.41.92a2.17,2.17,0,0,1,.15,1.18l-.12.79a2.16,2.16,0,0,1-1.66,1.75h0a2.13,2.13,0,0,1-2.16-.81c-1.45-2-4.63-5.93-7-6.57a55.14,55.14,0,0,0-7.78-1.18,2.67,2.67,0,0,0-2.63,1.44h0c1.41.25,10.8,6.41,14.12,8.61a3.78,3.78,0,0,1,1.75,3c0,1.11-.65,2.2-2.77,1.47-4.55-1.55-12.54-6.25-12.54-6.25s-4.2-1.67-7.2,0c-4.22,2.38-6.13,3.22-9.4,1.75a28.66,28.66,0,0,1-5.6-3.32l-14.32-.74a3.18,3.18,0,0,1-3-3.41C67.39,261.37,69.47,254.47,79.16,249.77Z"/><path class="cls-6" d="M107.1,256.56c0,.08,1.38-.22,3.63-.14a18.59,18.59,0,0,1,14.74,8.13c1.27,1.85,1.76,3.17,1.83,3.14a5.36,5.36,0,0,0-.34-.92,15.85,15.85,0,0,0-1.28-2.36,18,18,0,0,0-15-8.24,16.27,16.27,0,0,0-2.67.18A4.19,4.19,0,0,0,107.1,256.56Z"/><path class="cls-6" d="M109.58,252.14a15.75,15.75,0,0,1,3.79-.28,16.36,16.36,0,0,1,8.43,3.33,35.41,35.41,0,0,1,6.39,6.61L129.9,264a5.4,5.4,0,0,0,.65.79A5.74,5.74,0,0,0,130,264c-.37-.55-.92-1.35-1.62-2.3A32.08,32.08,0,0,0,122,254.9a15.88,15.88,0,0,0-8.62-3.29,10.84,10.84,0,0,0-2.82.22,5.66,5.66,0,0,0-.74.21C109.66,252.09,109.58,252.12,109.58,252.14Z"/><path class="cls-1" d="M90.15,251.06A11.76,11.76,0,0,0,89,250a7.67,7.67,0,0,0-4-1.34A12.25,12.25,0,0,0,79,250.09,23.37,23.37,0,0,0,68.21,260.8a9.74,9.74,0,0,0-1,3.17,5.78,5.78,0,0,0,0,1.5,7.23,7.23,0,0,0,.27,1.37,4.24,4.24,0,0,0,1.29,2,8.77,8.77,0,0,0,1.53,1l1,.55a1.23,1.23,0,0,1,.35.21,2.09,2.09,0,0,1-.38-.15l-1.06-.49a8.56,8.56,0,0,1-1.58-1,4.31,4.31,0,0,1-1.4-2,6.91,6.91,0,0,1-.3-1.41,5.86,5.86,0,0,1,0-1.57,9.62,9.62,0,0,1,1-3.27,23.28,23.28,0,0,1,10.9-10.86A12.51,12.51,0,0,1,85,248.45a7.81,7.81,0,0,1,4,1.48,6.29,6.29,0,0,1,.85.8A1.51,1.51,0,0,1,90.15,251.06Z"/><path class="cls-1" d="M56,235.78a6.23,6.23,0,0,1-1,0c-.61,0-1.49-.06-2.57,0a36.82,36.82,0,0,0-3.8.22,38.8,38.8,0,0,0-4.59.79,39.43,39.43,0,0,0-4.46,1.35,37.63,37.63,0,0,0-3.5,1.51c-1,.48-1.75.89-2.27,1.2a4.8,4.8,0,0,1-.85.44,5.5,5.5,0,0,1,.78-.56,24.23,24.23,0,0,1,2.23-1.3,35,35,0,0,1,3.49-1.59,38,38,0,0,1,4.5-1.39,37.51,37.51,0,0,1,4.63-.77,36.08,36.08,0,0,1,3.84-.15c1.09,0,2,.09,2.58.17A4.12,4.12,0,0,1,56,235.78Z"/><path class="cls-1" d="M58.58,268.87s-.06-.1-.13-.32-.19-.54-.28-1a14,14,0,0,1-.37-3.68,17.27,17.27,0,0,1,1.05-5.39,19.66,19.66,0,0,1,3.34-5.83A27.29,27.29,0,0,1,72,245.51a35.09,35.09,0,0,1,3.44-1.34c.41-.15.74-.23,1-.3l.34-.08a1.22,1.22,0,0,1-.32.15l-.93.35c-.82.31-2,.78-3.39,1.44a28.19,28.19,0,0,0-9.62,7.17,20,20,0,0,0-3.3,5.72,17.13,17.13,0,0,0-1.1,5.29A17.84,17.84,0,0,0,58.58,268.87Z"/><path class="cls-1" d="M223.21,246.43a1.93,1.93,0,0,1-.19-.56.89.89,0,0,1,0-.33l0-.19.08-.19a1.54,1.54,0,0,1,.74-.65c1.35-.62,3.56-.64,5.75-2a26.79,26.79,0,0,0,3.34-2.59,30.7,30.7,0,0,1,3.85-3,23.5,23.5,0,0,1,10.6-3.46,27.84,27.84,0,0,1,11.08,1.35,35.77,35.77,0,0,1,8.24,4,43.84,43.84,0,0,1,4.94,3.69c.55.48,1,.86,1.24,1.13a3,3,0,0,1,.41.41,3.6,3.6,0,0,1-.46-.36c-.29-.25-.72-.62-1.28-1.08a47.5,47.5,0,0,0-5-3.58,36.47,36.47,0,0,0-8.2-3.87,28.07,28.07,0,0,0-11-1.31A23.44,23.44,0,0,0,237,237.11a30.78,30.78,0,0,0-3.83,3,25.54,25.54,0,0,1-3.4,2.57c-2.26,1.42-4.52,1.41-5.82,2a1.44,1.44,0,0,0-.71.57l-.08.18,0,.17a1.07,1.07,0,0,0,0,.31C223.14,246.23,223.23,246.42,223.21,246.43Z"/><g class="cls-4"><path d="M233.05,245.52a19.59,19.59,0,0,1,9.26,9.61,11.32,11.32,0,0,1,.91,4.7,3.05,3.05,0,0,1-1.43,2.73,9.49,9.49,0,0,1-4.64,1.46c-2.25-.14-3.9-1.13-6.15-1.27-2.94-.18-8.08-1-8.09-1.19-.11-1.46-2.07-5.24-2.31-8,0-.14,0-.29,0-.45a7.79,7.79,0,0,1,8.8-8.6A14.06,14.06,0,0,1,233.05,245.52Z"/></g><path class="cls-5" d="M233.05,245.52l-9.84.91s-17.15-4.85-20.55-4c-3.06.74-13.86,9.08-16,10.73a1.34,1.34,0,0,0-.49.72h0a2.43,2.43,0,0,0,1.57,3l.24.08-.08.35a4.1,4.1,0,0,0-.07,1.36,1.64,1.64,0,0,0,3.09.49l-.38.79a1.92,1.92,0,0,0-.16,1l.09.69a1.87,1.87,0,0,0,1.4,1.58h0a1.88,1.88,0,0,0,1.91-.65c1.32-1.69,4.2-5.08,6.28-5.58a50.69,50.69,0,0,1,6.84-.83,2.35,2.35,0,0,1,2.26,1.33h0c-1.24.18-9.61,5.33-12.56,7.17a3.31,3.31,0,0,0-1.62,2.6c0,1,.52,1.95,2.39,1.37,4-1.25,11.13-5.15,11.13-5.15s3.71-1.36,6.29.2c3.63,2.19,5.28,3,8.17,1.78a25.59,25.59,0,0,0,5-2.76l12.55-.29a2.76,2.76,0,0,0,2.7-2.9C243.05,256,241.4,249.88,233.05,245.52Z"/><path class="cls-6" d="M208.45,250.75a31.26,31.26,0,0,0-3.18-.22,16.3,16.3,0,0,0-13.1,6.73c-1.16,1.59-1.62,2.73-1.68,2.7a5.64,5.64,0,0,1,.32-.8,14.49,14.49,0,0,1,1.18-2,15.77,15.77,0,0,1,13.28-6.82,13.44,13.44,0,0,1,2.34.23A3.47,3.47,0,0,1,208.45,250.75Z"/><path class="cls-6" d="M206.39,246.81a14.06,14.06,0,0,0-3.31-.34,14.36,14.36,0,0,0-7.46,2.7,30.53,30.53,0,0,0-5.75,5.62l-1.56,1.9a4.74,4.74,0,0,1-.59.68,4.68,4.68,0,0,1,.5-.75c.33-.47.83-1.15,1.47-2a28.43,28.43,0,0,1,5.75-5.74,14,14,0,0,1,7.63-2.66,9.51,9.51,0,0,1,2.46.27,5,5,0,0,1,.64.2Z"/><path class="cls-1" d="M223.41,246.37s.06-.11.21-.29a5.76,5.76,0,0,1,.76-.68,6.77,6.77,0,0,1,3.53-1.2,10.83,10.83,0,0,1,5.39,1.31,19.89,19.89,0,0,1,5.45,4.05,20.33,20.33,0,0,1,3.81,5.62,9.49,9.49,0,0,1,.89,2.85,4.23,4.23,0,0,1-.49,2.56,6,6,0,0,1-1.38,1.65,11.1,11.1,0,0,1-1.3,1c-.37.24-.66.41-.86.53a1.58,1.58,0,0,1-.32.15s.4-.28,1.11-.79a15.14,15.14,0,0,0,1.24-1,6,6,0,0,0,1.29-1.62,4,4,0,0,0,.43-2.42,9.4,9.4,0,0,0-.9-2.75,20.51,20.51,0,0,0-3.77-5.51,20.25,20.25,0,0,0-5.35-4,10.66,10.66,0,0,0-5.22-1.34,6.77,6.77,0,0,0-3.47,1.06A8.53,8.53,0,0,0,223.41,246.37Z"/><path class="cls-1" d="M253.68,233.87a4.32,4.32,0,0,1,.82-.11,21.83,21.83,0,0,1,2.26-.09,29.93,29.93,0,0,1,7.4,1,29.6,29.6,0,0,1,6.91,2.82,19.41,19.41,0,0,1,1.91,1.2,3.92,3.92,0,0,1,.66.51c0,.05-1-.61-2.69-1.5a33,33,0,0,0-14.19-3.8C254.86,233.85,253.68,233.93,253.68,233.87Z"/><path class="cls-1" d="M250.57,262.76a17.29,17.29,0,0,0,.57-4.33,16.61,16.61,0,0,0-3.57-9.73,24.75,24.75,0,0,0-8.22-6.52c-1.21-.62-2.22-1.06-2.92-1.35a7.08,7.08,0,0,1-1.08-.48l.29.08c.2.06.48.14.84.28a29.38,29.38,0,0,1,3,1.25,23.81,23.81,0,0,1,8.38,6.53,17.15,17.15,0,0,1,2.77,5.19,15,15,0,0,1,.78,4.74,12.24,12.24,0,0,1-.43,3.22,6.77,6.77,0,0,1-.27.83A1.48,1.48,0,0,1,250.57,262.76Z"/><path class="cls-2" d="M98.46,199.91a4.41,4.41,0,0,1-.16-.94c-.08-.67-.18-1.52-.31-2.55-.27-2.16-.7-5.13-1.29-8.39s-1.27-6.19-1.78-8.3c-.24-1-.45-1.85-.61-2.51a6,6,0,0,1-.19-.92,4.67,4.67,0,0,1,.32.89c.19.58.43,1.42.72,2.47.57,2.11,1.27,5,1.88,8.31s1,6.25,1.19,8.42c.11,1.08.18,2,.21,2.57A6.23,6.23,0,0,1,98.46,199.91Z"/><path class="cls-2" d="M259,237.25a10.25,10.25,0,0,1-1.08-.44,25.71,25.71,0,0,0-3-1A23.75,23.75,0,0,0,235.05,239a26.28,26.28,0,0,0-2.5,1.93,9.05,9.05,0,0,1-.88.75,1.2,1.2,0,0,1,.19-.23c.14-.14.33-.36.6-.62a22,22,0,0,1,2.45-2A23,23,0,0,1,255,235.55a19.93,19.93,0,0,1,3,1.14c.34.15.6.3.77.39A1.43,1.43,0,0,1,259,237.25Z"/><path class="cls-2" d="M234.25,236.56a1.35,1.35,0,0,1-.18-.25l-.48-.75-1.73-2.8c-1.46-2.35-3.47-5.62-6-9-1.27-1.69-2.54-3.26-3.61-4.76a30.9,30.9,0,0,1-2.57-4.15,17,17,0,0,1-1.2-3.07c-.11-.38-.16-.68-.2-.88a1.35,1.35,0,0,1,0-.31,11.55,11.55,0,0,1,.38,1.15,20,20,0,0,0,1.29,3,32.35,32.35,0,0,0,2.61,4.09c1.07,1.48,2.35,3,3.63,4.73a94.08,94.08,0,0,1,5.95,9.06c.7,1.2,1.26,2.18,1.63,2.86l.43.78A1,1,0,0,1,234.25,236.56Z"/><path class="cls-2" d="M96.29,229.52a11.87,11.87,0,0,1-2,1.76c-1.29,1-3.1,2.41-5.11,3.92S85.34,238.05,84,239l-1.58,1.13a2.61,2.61,0,0,1-.61.38,2.82,2.82,0,0,1,.52-.48l1.52-1.23c1.3-1,3.11-2.39,5.12-3.9l5.16-3.83,1.57-1.16A3.74,3.74,0,0,1,96.29,229.52Z"/><path class="cls-2" d="M82.18,247.74s-.36-.42-1-1.18a25.3,25.3,0,0,0-3-2.94,27.15,27.15,0,0,0-12.5-5.72,32,32,0,0,0-13.8.73,36.11,36.11,0,0,0-4,1.32c-.47.17-.82.33-1.07.42a1.73,1.73,0,0,1-.38.13,1.27,1.27,0,0,1,.35-.19c.24-.11.59-.3,1-.49a33.06,33.06,0,0,1,4-1.43,31.28,31.28,0,0,1,13.92-.83,26.73,26.73,0,0,1,12.6,5.87,23,23,0,0,1,3,3c.32.38.53.71.69.92A1.93,1.93,0,0,1,82.18,247.74Z"/><path class="cls-2" d="M79.93,239.08a1.47,1.47,0,0,1-.21-.31l-.54-.91c-.12-.2-.25-.42-.38-.66s-.33-.49-.5-.76c-.37-.54-.76-1.18-1.28-1.82l-.78-1c-.27-.35-.6-.69-.91-1.06-.62-.74-1.36-1.45-2.13-2.22A37.43,37.43,0,0,0,67.64,226a38.06,38.06,0,0,0-6.31-3.13c-1-.36-2-.72-2.92-1-.47-.12-.91-.26-1.35-.36l-1.26-.26c-.8-.19-1.54-.26-2.19-.36l-.9-.12-.76-.06-1.06-.09a1.61,1.61,0,0,1-.37,0,1.33,1.33,0,0,1,.37,0l1.07,0,.76,0,.91.09a21.56,21.56,0,0,1,2.21.31l1.28.24c.44.09.89.23,1.36.35,1,.22,1.93.58,3,.93a37.09,37.09,0,0,1,6.38,3.13,38,38,0,0,1,5.59,4.39c.77.78,1.51,1.51,2.13,2.27.31.37.63.71.9,1.08l.77,1c.51.65.88,1.3,1.24,1.85.17.28.34.54.48.78l.36.68c.19.39.35.7.48,1A1.41,1.41,0,0,1,79.93,239.08Z"/><path class="cls-2" d="M227,167.53a1.65,1.65,0,0,1-.17.34l-.55.95c-.24.4-.53.9-.85,1.49s-.71,1.25-1.09,2c-.78,1.5-1.64,3.32-2.5,5.38a70.64,70.64,0,0,0-2.42,6.86c-.72,2.47-1.25,4.87-1.66,7.07s-.64,4.2-.78,5.89c-.1.84-.13,1.6-.17,2.27s-.07,1.25-.09,1.73,0,.8,0,1.09a2.28,2.28,0,0,1,0,.38s0-.13,0-.38,0-.65,0-1.1,0-1,0-1.72.05-1.45.12-2.29c.11-1.7.35-3.71.72-5.92a68.74,68.74,0,0,1,1.64-7.12,67.47,67.47,0,0,1,2.45-6.88c.89-2.06,1.77-3.89,2.59-5.37.39-.76.79-1.41,1.13-2s.65-1.08.91-1.47l.6-.92A1.48,1.48,0,0,1,227,167.53Z"/><path class="cls-3" d="M105.07,141.86s-5.43-8.51,0-15.13,39-13.24,41.39-13.71,14.66-2.13,16.08-1.66,19.86,9.46,26.72,14,17.56,11.63,10.83,20.34c-6.94,9-29.07,33-29.07,33L155.68,196s-15.61-19.86-19.16-22.93S105.07,141.86,105.07,141.86Z"/><path class="cls-7" d="M105.07,141.86s-5.43-8.51,0-15.13,39-13.24,41.39-13.71,14.66-2.13,16.08-1.66,19.86,9.46,26.72,14,17,12.32,11.42,19.67c-6.85,9.07-28.55,32.42-28.55,32.42L155.68,196s-15.61-19.86-19.16-22.93S105.07,141.86,105.07,141.86Z"/><path class="cls-3" d="M117.1,119.79s-.6,11.74.22,15.86,14.87,27.48,22.85,33,8.7,7.79,15.56,6,10.21-7.64,13.76-11.84,11.71-11.54,13.86-18.1,4.11-20.49,4.11-20.49l-26.91-13.6C147.23,111.08,132.39,114.93,117.1,119.79Z"/><path class="cls-8" d="M117.1,119.79s-.6,11.74.22,15.86,14.87,27.48,22.85,33,8.7,7.79,15.56,6,10.21-7.64,13.76-11.84,11.71-11.54,13.86-18.1,4.11-20.49,4.11-20.49l-26.91-13.6C147.23,111.08,132.39,114.93,117.1,119.79Z"/><path class="cls-5" d="M151.91,72.74h0c-16.21.26-29.3,12.89-29.59,28.55-.25,14-.35,29.44.23,36.9,1.21,15.47,17.4,16.89,17.4,16.89l.14,9.49c0,1.56-.12,4-.12,4,7.45,5.27,9,7.89,15.71,6.13,6.85-1.81,10.21-7.64,13.77-11.84,2.9-3.44,8.86-9,12.12-14.42l.19-46.32C182.15,85.93,168.65,72.65,151.91,72.74Z"/><path class="cls-6" d="M122.12,122.38s15.67-5.11,25.4-5.35c6-.15,34.15,8,34.15,8v-2.67s-21.14-11-35.27-9.37a100.24,100.24,0,0,0-24.29,5.9Z"/><path class="cls-6" d="M140,155.12a38.29,38.29,0,0,0,20.52-7s-4.37,11.63-20.45,11.22Z"/><path class="cls-1" d="M127.4,110.16c.29.28,2-1,4.47-1s4.3,1.11,4.56.81c.13-.13-.17-.65-1-1.18a6.4,6.4,0,0,0-3.66-1,6.21,6.21,0,0,0-3.55,1.2C127.51,109.51,127.26,110,127.4,110.16Z"/><path class="cls-1" d="M151.82,109.33c.29.27,2-1,4.44-1.13s4.33,1,4.58.72c.13-.14-.18-.64-1-1.17a6.47,6.47,0,0,0-3.69-.93,6.17,6.17,0,0,0-3.52,1.26C151.91,108.67,151.67,109.2,151.82,109.33Z"/><path class="cls-1" d="M142.78,126c0-.14-1.55-.3-4.05-.45-.63,0-1.23-.11-1.37-.52a3.08,3.08,0,0,1,.31-1.83q.74-2.25,1.56-4.74c2.15-6.75,3.67-12.28,3.39-12.36s-2.26,5.32-4.42,12.07c-.51,1.66-1,3.25-1.47,4.77a3.31,3.31,0,0,0-.17,2.4,1.57,1.57,0,0,0,1.09.83,4.59,4.59,0,0,0,1.07.07A16.91,16.91,0,0,0,142.78,126Z"/><path class="cls-1" d="M150.15,103.86c.39.57,2.71-.29,5.61-.62s5.36-.13,5.59-.78c.1-.31-.45-.81-1.52-1.2a9.55,9.55,0,0,0-4.39-.42,9.66,9.66,0,0,0-4.14,1.48C150.37,103,150,103.58,150.15,103.86Z"/><path class="cls-1" d="M126.49,104.15c.33.63,2.25.5,4.41,1s3.87,1.28,4.43.83c.25-.23.1-.82-.57-1.51a7.19,7.19,0,0,0-7.12-1.45C126.74,103.36,126.36,103.85,126.49,104.15Z"/><path class="cls-1" d="M152.36,131c-.1.13-.68-.17-1.64-.41a7.22,7.22,0,0,0-3.75,0,7,7,0,0,0-3.12,2c-.65.73-.95,1.29-1.11,1.24s-.1-.73.46-1.69a6.12,6.12,0,0,1,3.44-2.61,6.26,6.26,0,0,1,4.35.28C152,130.29,152.45,130.85,152.36,131Z"/><path class="cls-1" d="M129.69,112.25a2.23,2.23,0,0,0,2.32,2.07,2.13,2.13,0,0,0,2.2-2.12,2.23,2.23,0,0,0-2.32-2.07A2.14,2.14,0,0,0,129.69,112.25Z"/><path class="cls-1" d="M154.1,111.19a2.23,2.23,0,0,0,2.32,2.07,2.13,2.13,0,0,0,2.2-2.11,2.22,2.22,0,0,0-2.32-2.07A2.12,2.12,0,0,0,154.1,111.19Z"/><path class="cls-6" d="M140,155.12a38.29,38.29,0,0,0,20.52-7s-4.37,11.63-20.45,11.22Z"/><path class="cls-1" d="M127.4,110.16c.29.28,2-1,4.47-1s4.3,1.11,4.56.81c.13-.13-.17-.65-1-1.18a6.4,6.4,0,0,0-3.66-1,6.21,6.21,0,0,0-3.55,1.2C127.51,109.51,127.26,110,127.4,110.16Z"/><path class="cls-1" d="M151.82,109.33c.29.27,2-1,4.44-1.13s4.33,1,4.58.72c.13-.14-.18-.64-1-1.17a6.47,6.47,0,0,0-3.69-.93,6.17,6.17,0,0,0-3.52,1.26C151.91,108.67,151.67,109.2,151.82,109.33Z"/><path class="cls-1" d="M142.78,126c0-.14-1.55-.3-4.05-.45-.63,0-1.23-.11-1.37-.52a3.08,3.08,0,0,1,.31-1.83q.74-2.25,1.56-4.74c2.15-6.75,3.67-12.28,3.39-12.36s-2.26,5.32-4.42,12.07c-.51,1.66-1,3.25-1.47,4.77a3.31,3.31,0,0,0-.17,2.4,1.57,1.57,0,0,0,1.09.83,4.59,4.59,0,0,0,1.07.07A16.91,16.91,0,0,0,142.78,126Z"/><path class="cls-1" d="M150.15,103.86c.39.57,2.71-.29,5.61-.62s5.36-.13,5.59-.78c.1-.31-.45-.81-1.52-1.2a9.55,9.55,0,0,0-4.39-.42,9.66,9.66,0,0,0-4.14,1.48C150.37,103,150,103.58,150.15,103.86Z"/><path class="cls-1" d="M126.49,104.15c.33.63,2.25.5,4.41,1s3.87,1.28,4.43.83c.25-.23.1-.82-.57-1.51a7.19,7.19,0,0,0-7.12-1.45C126.74,103.36,126.36,103.85,126.49,104.15Z"/><path class="cls-1" d="M152.36,131c-.1.13-.68-.17-1.64-.41a7.22,7.22,0,0,0-3.75,0,7,7,0,0,0-3.12,2c-.65.73-.95,1.29-1.11,1.24s-.1-.73.46-1.69a6.12,6.12,0,0,1,3.44-2.61,6.26,6.26,0,0,1,4.35.28C152,130.29,152.45,130.85,152.36,131Z"/><path class="cls-1" d="M129.69,112.25a2.23,2.23,0,0,0,2.32,2.07,2.13,2.13,0,0,0,2.2-2.12,2.23,2.23,0,0,0-2.32-2.07A2.14,2.14,0,0,0,129.69,112.25Z"/><path class="cls-1" d="M154.1,111.19a2.23,2.23,0,0,0,2.32,2.07,2.13,2.13,0,0,0,2.2-2.11,2.22,2.22,0,0,0-2.32-2.07A2.12,2.12,0,0,0,154.1,111.19Z"/><path class="cls-3" d="M201.19,132.94a52.27,52.27,0,0,1-4.4-9l-2.88-19.59s-13.84-23.53-15.49-26.61-9.7-11.58-9.7-11.58-5.11-5.11-10.89-7.43a8.32,8.32,0,0,0-7.32.59c-5.68,3.4-18.14,11.13-21,15.11-3.78,5.2-12.54,22-12.54,22s-2.43,7.88-4.79,10.72-10,18-10,22.7c0,.95.45,2.8.51,3.69.22-1.8.49-4.57,1.91-6.29,5.44-6.63,39-13.25,41.38-13.72s13,1.13,14.38,1.6,21.26,6.23,28.36,10.34c5.3,3.07,11.54,7.29,13.25,12.89l-.25-.75S203.45,136.25,201.19,132.94Z"/><path class="cls-1" d="M200.1,145.65a1.92,1.92,0,0,1,.18-.27c.13-.17.3-.43.53-.78a8.88,8.88,0,0,0,1.27-3.36,6.57,6.57,0,0,0-.15-2.58,10.8,10.8,0,0,0-1.34-2.8,18.4,18.4,0,0,0-2.08-2.9,15.23,15.23,0,0,0-1.41-1.36c-.49-.45-1-.92-1.56-1.35-4.35-3.6-10.38-6.77-17.43-9.24-3.52-1.26-7.28-2.4-11.19-3.53a109.84,109.84,0,0,0-12.2-3,39,39,0,0,0-6.33-.55,37.93,37.93,0,0,0-6.16.54c-4,.65-7.79,1.71-11.42,2.64a156.43,156.43,0,0,0-19,5.83,18.36,18.36,0,0,0-6.37,4,9.91,9.91,0,0,0-2.62,5,7.4,7.4,0,0,0,.16,3.58c.25.79.5,1.16.47,1.17s-.06-.09-.16-.28a6.18,6.18,0,0,1-.38-.87,7.41,7.41,0,0,1-.22-3.62,10,10,0,0,1,2.61-5.11,18.48,18.48,0,0,1,6.42-4.12,152.68,152.68,0,0,1,19-5.92c3.62-.93,7.41-2,11.45-2.67a38.35,38.35,0,0,1,6.21-.54,39.68,39.68,0,0,1,6.39.55A108.91,108.91,0,0,1,167,117.16c3.91,1.13,7.67,2.28,11.2,3.55,7.06,2.49,13.12,5.71,17.48,9.35.56.44,1.07.91,1.56,1.37a15.36,15.36,0,0,1,1.41,1.38,19.09,19.09,0,0,1,2.09,2.95,11,11,0,0,1,1.33,2.85,6.72,6.72,0,0,1,.13,2.65,8.7,8.7,0,0,1-1.35,3.37A8.84,8.84,0,0,1,200.1,145.65Z"/><path class="cls-1" d="M152.42,84.44s-.12,0-.36.11l-1,.23c-.45.09-1,.21-1.63.37s-1.37.31-2.16.55c-1.59.42-3.46,1-5.5,1.76a70.29,70.29,0,0,0-6.49,2.82c-2.24,1.14-4.3,2.36-6.13,3.53s-3.41,2.35-4.7,3.38c-.66.49-1.22,1-1.72,1.4s-.94.78-1.28,1.09l-.8.7a2.11,2.11,0,0,1-.3.23s.08-.11.25-.28l.76-.75c.33-.32.74-.71,1.24-1.14s1-.93,1.7-1.44a56.48,56.48,0,0,1,4.67-3.45A66.29,66.29,0,0,1,135.08,90a68.1,68.1,0,0,1,6.54-2.81c2.06-.73,3.95-1.3,5.55-1.7.8-.22,1.53-.36,2.17-.5s1.2-.24,1.66-.31l1.05-.17Z"/><path class="cls-1" d="M165.2,76.85a3,3,0,0,1-.7.25c-.45.13-1.11.31-1.93.52-1.63.41-3.9.94-6.42,1.44s-4.82.88-6.49,1.12c-.83.12-1.51.21-2,.26a3.1,3.1,0,0,1-.73,0,3.08,3.08,0,0,1,.71-.18l2-.36c1.66-.3,3.95-.72,6.46-1.22s4.79-1,6.44-1.34l1.95-.42A3.41,3.41,0,0,1,165.2,76.85Z"/><path class="cls-1" d="M187.89,130.6s0,.05,0,.15l0,.45a15.46,15.46,0,0,1,0,1.71,24.63,24.63,0,0,1-1.25,6.16,36.16,36.16,0,0,1-4.16,8.35,91.69,91.69,0,0,1-7,9L162,172.21,157.91,177l-1.14,1.28-.3.32-.11.11.09-.13.27-.35q.41-.48,1.08-1.32c1-1.16,2.35-2.8,4-4.82l13.4-15.82a96.7,96.7,0,0,0,7-9A37.3,37.3,0,0,0,186.4,139a26.17,26.17,0,0,0,1.36-6.09c.07-.74.1-1.32.1-1.7,0-.18,0-.33,0-.45A.85.85,0,0,1,187.89,130.6Z"/><path class="cls-1" d="M158.26,176.22l-.15,0h-.47c-.4,0-1,0-1.77-.07a24,24,0,0,1-6.37-1.45,32.41,32.41,0,0,1-8.42-4.78,49.22,49.22,0,0,1-8.3-8.48c-2.61-3.31-4.82-6.66-6.82-9.7s-3.73-5.85-5-8.28a54.67,54.67,0,0,1-2.79-5.91c-.27-.72-.48-1.28-.61-1.67l-.14-.44q0-.15,0-.15l.07.14.17.43c.14.37.37.93.67,1.64a60.87,60.87,0,0,0,2.87,5.84c1.33,2.41,3.07,5.19,5.08,8.22s4.24,6.37,6.83,9.67a49.66,49.66,0,0,0,8.23,8.43,32.54,32.54,0,0,0,8.31,4.81,25.51,25.51,0,0,0,6.29,1.55c.77.08,1.36.12,1.77.13l.46,0Z"/><path class="cls-1" d="M151.35,189.45l-.12-.12-.32-.35c-.3-.33-.71-.78-1.22-1.36-1.08-1.21-2.61-2.92-4.48-5-3.8-4.23-9.13-10-15.2-16.2s-11.75-11.64-15.9-15.52l-4.94-4.58L107.83,145l-.34-.33c-.08-.08-.12-.12-.11-.12l.13.09.37.31,1.38,1.2c1.2,1,2.92,2.58,5,4.5,4.2,3.84,9.9,9.26,16,15.46s11.38,12,15.14,16.28c1.88,2.14,3.38,3.88,4.4,5.1l1.17,1.41.3.37C151.33,189.4,151.36,189.44,151.35,189.45Z"/><path class="cls-1" d="M200.68,145c.07.07-8.35,9.75-18.81,21.62s-19,21.46-19.07,21.4,8.35-9.74,18.81-21.62S200.61,144.92,200.68,145Z"/><g class="cls-4"><path d="M119.49,100.61c4.63-5.12,10.08-9.41,15.51-13.68a31,31,0,0,1,5.64-3.81c3.43-1.66,7.34-2,11.15-2.27q4.67-.33,9.35-.52a4.87,4.87,0,0,1,2.52.36,1.68,1.68,0,0,1,.83,2.16c-.43.73-1.42.81-2.27.83a67.26,67.26,0,0,0-41.44,15.41"/></g><path class="cls-2" d="M154.8,195.33c-.07.06-5.71-6.33-12.6-14.28s-12.41-14.46-12.34-14.52,5.71,6.34,12.6,14.29S154.87,195.27,154.8,195.33Z"/><path class="cls-2" d="M172.79,178.45a16,16,0,0,1-1.65,1.68c-1,1-2.46,2.42-4,4s-2.89,3.07-3.86,4.15a17.5,17.5,0,0,1-1.62,1.72,2.33,2.33,0,0,1,.36-.53c.24-.33.61-.79,1.07-1.35.93-1.12,2.26-2.63,3.8-4.23s3-3,4.09-4c.54-.48,1-.87,1.3-1.13A2.78,2.78,0,0,1,172.79,178.45Z"/><path class="cls-2" d="M168.08,169.2a9.29,9.29,0,0,1-1.23,1.43L163.76,174c-1.15,1.27-2.2,2.41-3,3.36a10.06,10.06,0,0,1-1.32,1.35,9.84,9.84,0,0,1,1.13-1.51c.74-.9,1.79-2.13,3-3.44s2.33-2.46,3.16-3.27A10.85,10.85,0,0,1,168.08,169.2Z"/><path class="cls-2" d="M160.14,146s-.06.09-.21.24l-.65.65-.48.47c-.18.16-.39.32-.61.5a16.79,16.79,0,0,1-1.53,1.18l-.93.63c-.33.21-.69.4-1.06.61a24.38,24.38,0,0,1-2.4,1.21,26.88,26.88,0,0,1-12,2.17,26.1,26.1,0,0,1-2.68-.3c-.41-.07-.82-.12-1.2-.21l-1.09-.27a14.69,14.69,0,0,1-1.85-.56c-.27-.09-.52-.17-.75-.26l-.61-.27-.83-.38c-.19-.09-.29-.14-.29-.16a1.36,1.36,0,0,1,.31.1l.86.32.62.24.75.23c.54.15,1.15.38,1.85.51l1.08.24c.38.08.78.12,1.19.19a26.44,26.44,0,0,0,2.65.26,30,30,0,0,0,6.07-.41,29.35,29.35,0,0,0,5.83-1.73,24.21,24.21,0,0,0,2.39-1.17c.37-.2.73-.38,1.05-.59l.94-.61a15.7,15.7,0,0,0,1.55-1.12c.22-.17.44-.32.62-.48l.5-.44.69-.6C160,146,160.13,146,160.14,146Z"/><path class="cls-2" d="M177.66,119.58l-.17,0-.46-.12c-.41-.12-1-.29-1.79-.54-1.55-.49-3.77-1.27-6.49-2.25a92.69,92.69,0,0,0-9.71-3,49.29,49.29,0,0,0-5.9-1,50.48,50.48,0,0,0-6.43-.16,25.21,25.21,0,0,0-6.33,1l-5.81,1.53c-3.71,1-7,1.93-9.82,2.73l-6.59,1.91-1.79.52-.47.13c-.11,0-.16,0-.16,0a.49.49,0,0,1,.15-.06l.46-.16,1.77-.59c1.55-.49,3.79-1.19,6.57-2s6.09-1.78,9.79-2.8l5.81-1.55a26.25,26.25,0,0,1,6.41-1,51.08,51.08,0,0,1,6.47.17,49.71,49.71,0,0,1,6,1,87.8,87.8,0,0,1,9.71,3.1c2.72,1,4.92,1.83,6.45,2.35.76.27,1.36.46,1.77.6l.45.16C177.61,119.55,177.66,119.57,177.66,119.58Z"/><path class="cls-9" d="M96.85,212l6.65,66.3H213.23l3.36-67.43a5.53,5.53,0,0,0-5.72-5.66L102.45,206A5.52,5.52,0,0,0,96.85,212Z"/><ellipse class="cls-10" cx="159.12" cy="239.29" rx="6.05" ry="5.75"/><path class="cls-11" d="M134.63,233.82a16.72,16.72,0,0,0-2.33-4.91c-2.43-3-5.44-4.76-9.56-4.2a11.65,11.65,0,0,0-3.39,1h0l-.13.07c-.26.12-.52.25-.78.4h0a11.41,11.41,0,0,0-2.73,2.16c-2.74,3-2.85,6.33-1.5,9.92a17.09,17.09,0,0,0,3.05,4.53c.52.51,1.25.95,1.26,1.13s-.42.75.67,2.4c.84,1.27,3.39.45,4.51,0a.68.68,0,0,1,.83.28l1.44,2.51a.69.69,0,0,0,.9.25l.31-.16a.61.61,0,0,0,.27-.84l-.31-.6a.59.59,0,0,1,.27-.83.66.66,0,0,1,.89.25l.47.81a.7.7,0,0,0,.9.25l.3-.16a.63.63,0,0,0,.27-.86l-.44-.76a.61.61,0,0,1,.26-.85l.09,0h0a.68.68,0,0,1,.9.25l.43.77a.67.67,0,0,0,.89.25l.31-.16a.61.61,0,0,0,.27-.85l-.46-.81a.61.61,0,0,1,.27-.85.67.67,0,0,1,.88.24l.36.57a.67.67,0,0,0,.88.24l.31-.16a.6.6,0,0,0,.27-.85L134,241.7a.61.61,0,0,1,.2-.81c1-.65,3.11-2.24,2.45-3.61-.86-1.77-1.52-1.69-1.75-1.85S134.79,234.51,134.63,233.82Z"/><path class="cls-1" d="M134.63,233.82a2.5,2.5,0,0,1,.1.41l.08.52a1.88,1.88,0,0,0,.16.65,2.29,2.29,0,0,1,.8.44,3.32,3.32,0,0,1,.68.86c.11.17.2.35.3.54a1.3,1.3,0,0,1,.13.67,2.36,2.36,0,0,1-.59,1.34,7.28,7.28,0,0,1-1.16,1.12q-.33.27-.69.51a.57.57,0,0,0-.36.62,1.49,1.49,0,0,0,.19.38l.23.41.48.83.49.87a1,1,0,0,1,.19.54.74.74,0,0,1-.26.55,3.57,3.57,0,0,1-.49.28.83.83,0,0,1-.62,0,.85.85,0,0,1-.46-.41c-.09-.16-.19-.32-.29-.48a.55.55,0,0,0-.79-.16.48.48,0,0,0-.15.6l.15.25.29.52a.75.75,0,0,1,.08.69.85.85,0,0,1-.49.48,1.09,1.09,0,0,1-.67.19.85.85,0,0,1-.61-.4l-.31-.55c-.11-.2-.18-.34-.34-.41a.54.54,0,0,0-.48,0l.06-.21h0l.08.15-.15.06a.48.48,0,0,0-.27.72l.29.5.15.26a.72.72,0,0,1,.08.35.78.78,0,0,1-.33.63,3.14,3.14,0,0,1-.58.29.86.86,0,0,1-.71-.14.88.88,0,0,1-.24-.27l-.15-.26-.3-.53a.5.5,0,0,0-.92.34c.05.13.19.35.27.53a.92.92,0,0,1,.16.71.85.85,0,0,1-.5.56,2.79,2.79,0,0,1-.3.15.85.85,0,0,1-1.05-.35l-.32-.57c-.22-.37-.44-.75-.65-1.13l-.33-.57c-.13-.21-.19-.36-.35-.43a.58.58,0,0,0-.51,0l-.64.23a6.19,6.19,0,0,1-2.75.37,1.76,1.76,0,0,1-1.26-.77,5.47,5.47,0,0,1-.64-1.28,1.79,1.79,0,0,1-.08-.83l0-.21c0-.05,0-.14,0-.09a1.19,1.19,0,0,0-.2-.2,11.14,11.14,0,0,1-1.17-1,14.51,14.51,0,0,1-1.84-2.41c-.26-.43-.51-.86-.74-1.3-.11-.22-.22-.44-.32-.66l-.25-.71a11.68,11.68,0,0,1-.59-2.84,8.32,8.32,0,0,1,1.36-5.31,11,11,0,0,1,3.78-3.45l-.05.2h0l-.08-.13.14-.07.92-.47.13-.07.06.14h0l-.19-.07a10.71,10.71,0,0,1,8.08-.57,11.5,11.5,0,0,1,5,3.82,17.42,17.42,0,0,1,1.89,3.6,7.63,7.63,0,0,1,.39,1.38,2,2,0,0,1-.12-.35c-.07-.23-.18-.57-.35-1a18.77,18.77,0,0,0-1.94-3.52,11.31,11.31,0,0,0-4.93-3.71,10.56,10.56,0,0,0-7.88.61l-.13.06-.06-.12h0l.19.07-.9.46.06-.2h0l.08.13-.13.07a10.61,10.61,0,0,0-3.66,3.38,7.91,7.91,0,0,0-1.3,5.11,11.71,11.71,0,0,0,.58,2.76l.23.66c.1.22.21.44.33.65.22.43.46.86.72,1.28a13.57,13.57,0,0,0,1.8,2.35,10.07,10.07,0,0,0,1.14,1,1.05,1.05,0,0,1,.31.36.48.48,0,0,1,0,.28l0,.17a1.63,1.63,0,0,0,.07.69,5.12,5.12,0,0,0,.6,1.19,1.39,1.39,0,0,0,1,.62,6.06,6.06,0,0,0,2.59-.36l.62-.22a1,1,0,0,1,.78,0,.76.76,0,0,1,.32.27c.08.12.12.2.18.3l.33.57c.22.38.44.76.65,1.14l.32.56a.52.52,0,0,0,.4.25,1,1,0,0,0,.51-.17.54.54,0,0,0,.33-.35c0-.16,0-.27-.13-.48l-.15-.28a1.13,1.13,0,0,1-.14-.31.75.75,0,0,1,.19-.73.86.86,0,0,1,.69-.26.82.82,0,0,1,.63.4l.3.53.15.26a.68.68,0,0,0,.15.18.56.56,0,0,0,.44.08,3.07,3.07,0,0,0,.48-.24.46.46,0,0,0,.2-.37.54.54,0,0,0,0-.21l-.14-.25-.29-.5a.77.77,0,0,1-.07-.68.88.88,0,0,1,.47-.46l-.06.21h0l-.08-.13.14-.07a.8.8,0,0,1,.75,0,.72.72,0,0,1,.3.25,3.09,3.09,0,0,1,.17.29l.31.54a.53.53,0,0,0,.39.26.82.82,0,0,0,.49-.15.61.61,0,0,0,.37-.33.5.5,0,0,0-.07-.45l-.29-.52-.14-.26a.67.67,0,0,1-.09-.34.81.81,0,0,1,.32-.61.82.82,0,0,1,1.18.25l.29.47a.57.57,0,0,0,.32.31.58.58,0,0,0,.43,0,4.14,4.14,0,0,0,.43-.24.52.52,0,0,0,.18-.36.79.79,0,0,0-.16-.42l-.49-.87c-.16-.29-.31-.57-.47-.84l-.23-.41a1.7,1.7,0,0,1-.2-.45A.7.7,0,0,1,134,241a1.07,1.07,0,0,1,.36-.32c.24-.16.47-.32.69-.49a7.38,7.38,0,0,0,1.14-1.08,2.24,2.24,0,0,0,.57-1.23,2,2,0,0,0-.38-1.14,3.88,3.88,0,0,0-.65-.85,2.39,2.39,0,0,0-.77-.44.67.67,0,0,1-.14-.39l0-.33-.06-.52C134.65,234,134.62,233.82,134.63,233.82Z"/><path class="cls-9" d="M123.73,237.47a2.87,2.87,0,0,1-1.22,4,3.17,3.17,0,0,1-4.19-1.17,2.86,2.86,0,0,1,1.23-4A3.16,3.16,0,0,1,123.73,237.47Z"/><path class="cls-1" d="M123.73,237.47s-.16-.21-.5-.54a3.11,3.11,0,0,0-1.74-.82,3,3,0,0,0-2.61.9,2.71,2.71,0,0,0-.41,3.2,3,3,0,0,0,3,1.42,3,3,0,0,0,2.27-1.55,2.88,2.88,0,0,0,.24-1.9c-.11-.46-.25-.69-.22-.71s0,.05.12.16a2.54,2.54,0,0,1,.23.51,2.82,2.82,0,0,1-.15,2,3.2,3.2,0,0,1-2.45,1.77,3.32,3.32,0,0,1-3.31-1.57,3,3,0,0,1-.36-1.95,3,3,0,0,1,.84-1.64,3.27,3.27,0,0,1,2.87-.92,3.12,3.12,0,0,1,1.81,1,2.59,2.59,0,0,1,.33.45C123.72,237.41,123.74,237.47,123.73,237.47Z"/><path class="cls-9" d="M132.29,233a2.86,2.86,0,0,1-1.23,4,3.16,3.16,0,0,1-4.18-1.16,2.86,2.86,0,0,1,1.22-4A3.17,3.17,0,0,1,132.29,233Z"/><path class="cls-1" d="M132.29,233s-.16-.22-.5-.54a3.15,3.15,0,0,0-1.75-.82,3.05,3.05,0,0,0-2.61.9,2.69,2.69,0,0,0-.4,3.2,3,3,0,0,0,3,1.42,3,3,0,0,0,2.27-1.56,2.75,2.75,0,0,0,.24-1.9c-.11-.45-.24-.68-.21-.7s.05.05.11.16a1.91,1.91,0,0,1,.23.51,2.82,2.82,0,0,1-.15,2,3.17,3.17,0,0,1-2.45,1.76,3.29,3.29,0,0,1-3.3-1.56,3,3,0,0,1-.36-1.95,3.09,3.09,0,0,1,.83-1.65,3.28,3.28,0,0,1,2.88-.91,3,3,0,0,1,1.8,1,2.14,2.14,0,0,1,.33.45C132.27,232.94,132.3,233,132.29,233Z"/><path class="cls-9" d="M126.26,238.6c-.07.06-.77,2.49.09,3.9a1.34,1.34,0,0,0,1.84.46.47.47,0,0,0,.25-.58.81.81,0,0,0,1.22-.51C130.31,240.24,126.26,238.6,126.26,238.6Z"/><path class="cls-1" d="M126.26,238.6a6.1,6.1,0,0,1,1.78.78,4.74,4.74,0,0,1,1.63,1.41,1.38,1.38,0,0,1,.14.3.94.94,0,0,1,.07.34.74.74,0,0,1,0,.36,1.26,1.26,0,0,1-.13.34,1.05,1.05,0,0,1-.58.51,1.09,1.09,0,0,1-.79-.11l.25-.2a1,1,0,0,1,0,.12.58.58,0,0,1-.12.46.85.85,0,0,1-.32.25,1.33,1.33,0,0,1-.73.17,1.57,1.57,0,0,1-1.19-.66,3.61,3.61,0,0,1-.46-2.14,3.92,3.92,0,0,1,.45-1.93s0,.18-.08.52a7.87,7.87,0,0,0-.13,1.41,3.64,3.64,0,0,0,.48,2,1.28,1.28,0,0,0,1,.5,1.06,1.06,0,0,0,.55-.13c.18-.1.29-.22.26-.36a.14.14,0,0,0,0-.06l-.13-.41.39.21a.76.76,0,0,0,.51.07.75.75,0,0,0,.39-.34,1,1,0,0,0,0-1,4.79,4.79,0,0,0-1.47-1.36C126.92,239,126.24,238.65,126.26,238.6Z"/><path class="cls-2" d="M45,170.34A20,20,0,0,0,48.66,165c1.64-4.34,1.6-8.49-1.48-12.4a14.3,14.3,0,0,0-3.1-2.87h0l-.15-.09c-.29-.2-.58-.39-.88-.56h0a13.41,13.41,0,0,0-3.88-1.5c-4.74-1-8.25.91-11.13,4.48a20.38,20.38,0,0,0-2.81,5.89c-.2.85-.22,1.87-.4,2s-1,0-2.06,2.15c-.8,1.64,1.6,3.77,2.73,4.66a.8.8,0,0,1,.21,1l-1.7,3a.8.8,0,0,0,.29,1.07l.35.23a.74.74,0,0,0,1-.23l.42-.69a.73.73,0,0,1,1-.23A.8.8,0,0,1,27.4,172l-.55,1a.82.82,0,0,0,.29,1.08l.35.22a.74.74,0,0,0,1-.25l.51-.91a.73.73,0,0,1,1-.25l.11.07h0a.8.8,0,0,1,.28,1.07l-.52.91a.81.81,0,0,0,.28,1.07l.35.23a.73.73,0,0,0,1-.25l.56-1a.73.73,0,0,1,1-.24.81.81,0,0,1,.29,1l-.38.72a.8.8,0,0,0,.29,1.05l.36.23a.74.74,0,0,0,1-.24l1.72-3a.73.73,0,0,1,1-.28c1.28.63,4.2,1.83,5.2.32,1.3-2,.83-2.6.85-2.92S44.4,170.93,45,170.34Z"/><path class="cls-1" d="M34.6,161.41a3.43,3.43,0,0,1-4.79,1.39,3.79,3.79,0,0,1-1.57-5A3.42,3.42,0,0,1,33,156.46,3.79,3.79,0,0,1,34.6,161.41Z"/><path class="cls-1" d="M44.66,167.05a3.41,3.41,0,0,1-4.78,1.38,3.78,3.78,0,0,1-1.58-4.94,3.43,3.43,0,0,1,4.79-1.39A3.78,3.78,0,0,1,44.66,167.05Z"/><path class="cls-1" d="M35.13,164.68c-.11,0-3,.86-3.85,2.64a1.61,1.61,0,0,0,.75,2.15.56.56,0,0,0,.74-.14,1,1,0,0,0,1.31.89C36.14,169.81,35.13,164.68,35.13,164.68Z"/></g></g></svg>