<svg xmlns="http://www.w3.org/2000/svg" viewBox="0 0 266.76 220.14"><defs><style>.cls-1{fill:#e8505b;}.cls-2{fill:#263238;}.cls-3,.cls-7{opacity:0.3;}.cls-4{fill:#ffbe9d;}.cls-5{fill:#eb996e;}.cls-6{fill:#fff;}.cls-8{opacity:0.5;}</style></defs><g id="Layer_2" data-name="Layer 2"><g id="Device"><path class="cls-1" d="M185.42,98.75l-15.84-6.88H94.84a117.34,117.34,0,0,1-10.56,5.74c-2.9,1.34-17.47,10.46-17.47,10.46l10.1,104,118,.31,7.94-106.55Z"/><path class="cls-1" d="M66.81,108.07s-23,26.11-23.77,28.24-6.93,13.06-6.93,13.06-9.6,4.53-10.93,6.93-4,7.47-4,7.47S2.27,186.51.49,194.05c-2,8.35,2.66,18.35,2.66,18.35H62.7L67.27,193h0a1.62,1.62,0,0,0-1.2-2.35c-3.28-.9-5.75-1.3-8-3.74l.42-3.13,11.05-8.47,10-7.7Z"/><path class="cls-1" d="M194.91,161.23c0,.28,8.83,6.54,8.83,6.54l8.16,12.39a39.42,39.42,0,0,1-6.08,4.66h0l-5.51,1.89L200,188l.87,4.51c1.68,8.68,8.73,17.9,17.38,19.74l1.19,0,40.94.18c3.51-5.66,6.87-10.14,6.3-16.14l-1-10.08-15.82-21.25-23.38-33.76s-16.12-22.24-23.69-25.33l-7.94,19Z"/><path class="cls-2" d="M73.7,138.92a8.65,8.65,0,0,1-.09-1.13c0-.73-.1-1.79-.22-3.09a70.35,70.35,0,0,0-1.62-10.06,71.16,71.16,0,0,0-3.12-9.7c-.49-1.21-.91-2.19-1.21-2.85a7.16,7.16,0,0,1-.43-1,6.64,6.64,0,0,1,.55,1c.34.65.79,1.61,1.32,2.81a61.49,61.49,0,0,1,3.22,9.72,61.05,61.05,0,0,1,1.54,10.12c.08,1.31.11,2.37.1,3.1A5.94,5.94,0,0,1,73.7,138.92Z"/><path class="cls-2" d="M191.65,139.24s0-.11,0-.33V138c0-.4,0-.9,0-1.47s0-1.23.12-1.95c.12-1.44.35-3.15.7-5a55.51,55.51,0,0,1,1.56-6,52.94,52.94,0,0,1,2.29-5.79,46.92,46.92,0,0,1,2.39-4.48c.36-.63.73-1.17,1-1.65s.6-.89.84-1.21l.56-.75q.19-.25.21-.24a1.75,1.75,0,0,1-.16.28c-.13.22-.3.47-.5.79s-.49.74-.78,1.24-.66,1-1,1.66c-.73,1.25-1.52,2.77-2.32,4.5a59.3,59.3,0,0,0-2.25,5.76,60,60,0,0,0-1.57,6c-.36,1.87-.62,3.56-.77,5-.09.71-.12,1.36-.17,1.93s-.08,1.06-.1,1.47,0,.67-.05.92A1.68,1.68,0,0,1,191.65,139.24Z"/><path class="cls-2" d="M37.6,162.87a1.81,1.81,0,0,1,.32,0c.2,0,.5.09.88.18a22.64,22.64,0,0,1,3.17,1,24.73,24.73,0,0,1,9,6.22,31.19,31.19,0,0,1,3.64,4.83,37.66,37.66,0,0,1,2.25,4.39c.56,1.29,1,2.34,1.26,3.07.13.34.23.62.31.85a1.13,1.13,0,0,1,.09.3s-.06-.09-.15-.28-.23-.49-.37-.82c-.32-.71-.77-1.75-1.37-3a40.66,40.66,0,0,0-2.29-4.32,32.59,32.59,0,0,0-3.62-4.76,25.57,25.57,0,0,0-8.81-6.23,29,29,0,0,0-3.11-1.11A9.09,9.09,0,0,1,37.6,162.87Z"/><g class="cls-3"><path d="M58.09,186.76C55.67,179.5,47.23,174.35,42,170.07c-3.1-2.54-7-4.68-10.93-4a4.34,4.34,0,0,0-3.49,2.37c-.54,1.37.5,3.27,2,3.1-3.26,1.74-6,3.08-9.26,4.82A2.39,2.39,0,0,0,18.76,178c-.14.57-.34,1.06.21.89a28.21,28.21,0,0,1,12.4-1.22s1.52-.44,7-.23c5.91.22,9.67.29,19.69,9.29"/></g><g class="cls-3"><path d="M211.69,180.06a24.43,24.43,0,0,1,13.69-12.88c3.62-1.48,8-2,11.27.23,1.65,1.1,3.15,3.09,2.06,5.63-1.36,3.19-5.89,2.58-7.08,2.72a27.05,27.05,0,0,0-9.25-.13c-4.36.86-5.52,1.81-10.48,4.53"/></g><path class="cls-2" d="M67.27,193s.09-.22.16-.64a1.07,1.07,0,0,0,0-.36l0-.2-.09-.2a1.64,1.64,0,0,0-.79-.68,21.63,21.63,0,0,0-2.89-.85,15.18,15.18,0,0,1-1.8-.6,13.84,13.84,0,0,1-1.89-1,28,28,0,0,1-3.79-3.06,35.76,35.76,0,0,0-4.28-3.53,26.78,26.78,0,0,0-11.84-4.23,32.12,32.12,0,0,0-12.58,1.14,41.82,41.82,0,0,0-9.5,4.14,54.14,54.14,0,0,0-5.8,3.94c-.66.51-1.16.91-1.5,1.19l-.39.31-.14.1s0,0,.11-.13l.37-.33c.33-.3.82-.72,1.46-1.24a51,51,0,0,1,5.76-4.05,41,41,0,0,1,9.55-4.24,31.92,31.92,0,0,1,12.7-1.17,26.77,26.77,0,0,1,12,4.31,34,34,0,0,1,4.29,3.58,29.6,29.6,0,0,0,3.73,3.06c2.46,1.7,5,1.79,6.51,2.54a1.73,1.73,0,0,1,.82.75l.09.23,0,.22a1.09,1.09,0,0,1,0,.37,2.51,2.51,0,0,1-.15.48C67.3,192.93,67.28,193,67.27,193Z"/><g class="cls-3"><path d="M56.06,191.62c-4.69,1.9-8.64,6.14-10.9,10.66A13,13,0,0,0,44,207.62a3.49,3.49,0,0,0,1.54,3.17,19,19,0,0,0,3.25,1.63c2.58-.08,10.87.05,13.45,0,3.36-.1,4.88-1.88,4.9-2.11.17-1.66,2.54-5.92,2.91-9.08,0-.16,0-.32.06-.5a8.9,8.9,0,0,0-9.77-10.12A15.37,15.37,0,0,0,56.06,191.62Z"/></g><path class="cls-4" d="M56.06,191.62,67.27,193s19.76-5,23.61-3.92c3.47.95,15.53,10.84,17.89,12.79a1.67,1.67,0,0,1,.54.85h0a2.79,2.79,0,0,1-1.9,3.36l-.28.09.08.39a4.79,4.79,0,0,1,0,1.56,1.88,1.88,0,0,1-3.55.46l.4.91a2.13,2.13,0,0,1,.16,1.19l-.13.78a2.12,2.12,0,0,1-1.65,1.75h0a2.12,2.12,0,0,1-2.16-.8c-1.45-2-4.63-5.94-7-6.58a56.86,56.86,0,0,0-7.78-1.18,2.67,2.67,0,0,0-2.63,1.45h0c1.41.24,10.8,6.4,14.11,8.61a3.76,3.76,0,0,1,1.76,3c0,1.11-.65,2.2-2.77,1.48-4.55-1.56-12.54-6.25-12.54-6.25s-4.2-1.67-7.2,0c-4.22,2.38-6.13,3.22-9.4,1.76a28.66,28.66,0,0,1-5.6-3.32L47,210.65a3.17,3.17,0,0,1-3-3.41C44.29,203.21,46.37,196.31,56.06,191.62Z"/><path class="cls-5" d="M84,198.41a35.72,35.72,0,0,1,3.63-.14,18.59,18.59,0,0,1,14.74,8.13,33.23,33.23,0,0,1,1.82,3.14,4.13,4.13,0,0,0-.33-.93,16.37,16.37,0,0,0-1.28-2.36,18,18,0,0,0-15-8.24,16.07,16.07,0,0,0-2.67.19A4.19,4.19,0,0,0,84,198.41Z"/><path class="cls-5" d="M86.48,194a15.5,15.5,0,0,1,3.79-.27A16.27,16.27,0,0,1,98.69,197a34.9,34.9,0,0,1,6.4,6.62l1.71,2.22a6,6,0,0,0,.65.8,5.47,5.47,0,0,0-.54-.88c-.37-.55-.92-1.34-1.62-2.3a32.08,32.08,0,0,0-6.38-6.75,16,16,0,0,0-8.62-3.29,10.35,10.35,0,0,0-2.82.23,6,6,0,0,0-.74.2A.72.72,0,0,0,86.48,194Z"/><path class="cls-2" d="M67.05,192.91a10.55,10.55,0,0,0-1.18-1,7.73,7.73,0,0,0-4-1.34,12.25,12.25,0,0,0-6,1.4,23.25,23.25,0,0,0-10.75,10.71,9.38,9.38,0,0,0-1,3.16,5.86,5.86,0,0,0,0,1.51,7.12,7.12,0,0,0,.27,1.36,4.19,4.19,0,0,0,1.29,2,8.53,8.53,0,0,0,1.52,1l1,.55a1.61,1.61,0,0,1,.35.21,1.6,1.6,0,0,1-.38-.15l-1.06-.49a8.56,8.56,0,0,1-1.58-1,4.28,4.28,0,0,1-1.4-2,7.65,7.65,0,0,1-.31-1.41,6.32,6.32,0,0,1,0-1.57,9.62,9.62,0,0,1,1-3.27,23.16,23.16,0,0,1,10.9-10.86,12.28,12.28,0,0,1,6.21-1.35,7.65,7.65,0,0,1,4,1.47,5.87,5.87,0,0,1,.86.81A1.51,1.51,0,0,1,67.05,192.91Z"/><path class="cls-2" d="M32.89,177.62a5.35,5.35,0,0,1-.95,0c-.61,0-1.49-.06-2.57-.06s-2.38.08-3.8.22a44,44,0,0,0-4.6.79,39.82,39.82,0,0,0-4.45,1.36,37.79,37.79,0,0,0-3.5,1.5c-1,.48-1.75.9-2.28,1.2a4.57,4.57,0,0,1-.84.44,6.15,6.15,0,0,1,.78-.55,24.23,24.23,0,0,1,2.23-1.3,32.9,32.9,0,0,1,3.49-1.59,39.32,39.32,0,0,1,4.5-1.4,37.39,37.39,0,0,1,4.63-.76,33.53,33.53,0,0,1,3.84-.15,24.4,24.4,0,0,1,2.58.16A6.3,6.3,0,0,1,32.89,177.62Z"/><path class="cls-2" d="M35.48,210.72s-.06-.11-.13-.33a8.22,8.22,0,0,1-.28-1,14.08,14.08,0,0,1-.37-3.69,17.21,17.21,0,0,1,1-5.38,19.66,19.66,0,0,1,3.34-5.83,27.09,27.09,0,0,1,9.78-7.17A34.66,34.66,0,0,1,52.31,186c.41-.14.74-.23,1-.29a1.12,1.12,0,0,1,.34-.08,1.08,1.08,0,0,1-.32.14l-.93.36c-.82.31-2,.77-3.39,1.44a28.06,28.06,0,0,0-9.62,7.17,19.91,19.91,0,0,0-3.3,5.72,17,17,0,0,0-1.1,5.28A17.88,17.88,0,0,0,35.48,210.72Z"/><path class="cls-2" d="M196,193.92a1.75,1.75,0,0,1-.27-.52,1.07,1.07,0,0,1-.07-.32v-.2l0-.2a1.49,1.49,0,0,1,.63-.75c1.24-.82,3.42-1.18,5.37-2.91a24.69,24.69,0,0,0,2.9-3.07,30.67,30.67,0,0,1,3.35-3.58,23.47,23.47,0,0,1,9.94-5,28.07,28.07,0,0,1,11.16-.36,35.83,35.83,0,0,1,8.75,2.65,42.32,42.32,0,0,1,5.44,2.9c.62.39,1.09.7,1.4.92a5.28,5.28,0,0,1,.47.35,3.59,3.59,0,0,1-.51-.29l-1.43-.87a47.74,47.74,0,0,0-5.47-2.78,36.25,36.25,0,0,0-8.7-2.57,28,28,0,0,0-11,.39,23.26,23.26,0,0,0-9.82,4.94,31.11,31.11,0,0,0-3.33,3.53,24.79,24.79,0,0,1-3,3.06c-2,1.75-4.25,2.08-5.45,2.84a1.51,1.51,0,0,0-.62.67l0,.18v.18a1,1,0,0,0,0,.31C195.92,193.74,196,193.91,196,193.92Z"/><g class="cls-3"><path d="M205.61,191.52a19.67,19.67,0,0,1,10.62,8.08,11.37,11.37,0,0,1,1.61,4.51,3.09,3.09,0,0,1-1,2.92,9.54,9.54,0,0,1-4.37,2.14c-2.25.21-4-.52-6.27-.31-2.93.28-8.13.26-8.18.06-.32-1.42-2.84-4.87-3.5-7.57,0-.13-.07-.27-.11-.43a7.78,7.78,0,0,1,7.38-9.84A13.65,13.65,0,0,1,205.61,191.52Z"/></g><path class="cls-4" d="M205.61,191.52l-9.59,2.4s-17.69-2.17-20.92-.84c-2.91,1.2-12.31,11.09-14.15,13a1.45,1.45,0,0,0-.37.79h0a2.44,2.44,0,0,0,2,2.72l.25,0,0,.35a3.94,3.94,0,0,0,.13,1.36,1.64,1.64,0,0,0,3.13,0l-.25.84a2,2,0,0,0,0,1.05l.2.66a1.84,1.84,0,0,0,1.62,1.34h0a1.84,1.84,0,0,0,1.79-.93c1-1.87,3.38-5.65,5.35-6.47a49.44,49.44,0,0,1,6.63-1.86,2.32,2.32,0,0,1,2.44,1h0c-1.2.36-8.67,6.73-11.32,9a3.28,3.28,0,0,0-1.19,2.82c.1,1,.8,1.84,2.56,1,3.78-1.84,10.21-6.79,10.21-6.79s3.47-1.9,6.26-.76c3.92,1.62,5.66,2.14,8.34.51a25.24,25.24,0,0,0,4.51-3.49l12.35-2.2a2.76,2.76,0,0,0,2.23-3.28C217.09,200.31,214.53,194.55,205.61,191.52Z"/><path class="cls-5" d="M182.09,200.44c0,.07-1.23,0-3.17.28A16.3,16.3,0,0,0,167,209.37a31.74,31.74,0,0,0-1.24,2.93,3.77,3.77,0,0,1,.19-.84,14.2,14.2,0,0,1,.85-2.19,15.75,15.75,0,0,1,12.09-8.77,14.5,14.5,0,0,1,2.34-.14A3.69,3.69,0,0,1,182.09,200.44Z"/><path class="cls-5" d="M179.45,196.87a13.51,13.51,0,0,0-3.32.17,14.25,14.25,0,0,0-6.95,3.8,30.69,30.69,0,0,0-4.84,6.44l-1.24,2.12a4.72,4.72,0,0,1-.48.76,4.56,4.56,0,0,1,.37-.82c.27-.52.65-1.27,1.16-2.17a28.18,28.18,0,0,1,4.81-6.55,13.91,13.91,0,0,1,7.13-3.8,9.57,9.57,0,0,1,2.47-.11c.29,0,.51.08.66.1A.67.67,0,0,1,179.45,196.87Z"/><path class="cls-2" d="M196.21,193.83s0-.11.16-.31a5.44,5.44,0,0,1,.65-.79,6.67,6.67,0,0,1,3.31-1.73,10.79,10.79,0,0,1,5.52.47,19.91,19.91,0,0,1,6,3.17,20.31,20.31,0,0,1,4.63,5,9.67,9.67,0,0,1,1.32,2.68,4.19,4.19,0,0,1-.1,2.61,6.12,6.12,0,0,1-1.11,1.84,10.35,10.35,0,0,1-1.13,1.15c-.33.3-.6.52-.78.66a1.19,1.19,0,0,1-.29.2s.35-.34,1-.95a13.62,13.62,0,0,0,1.07-1.18,6.08,6.08,0,0,0,1-1.8,4,4,0,0,0,.05-2.45,9,9,0,0,0-1.31-2.58,20.47,20.47,0,0,0-4.57-4.88,20.21,20.21,0,0,0-5.89-3.14,10.75,10.75,0,0,0-5.37-.53,6.78,6.78,0,0,0-3.27,1.59A8.77,8.77,0,0,0,196.21,193.83Z"/><path class="cls-2" d="M224.21,176.86a3.38,3.38,0,0,1,.8-.24,20,20,0,0,1,2.22-.43,29.77,29.77,0,0,1,14.72,1.6,20,20,0,0,1,2.08.9,3.49,3.49,0,0,1,.73.4s-1.1-.45-2.89-1.07a33,33,0,0,0-14.61-1.59C225.38,176.65,224.22,176.92,224.21,176.86Z"/><path class="cls-2" d="M225.55,205.88a17.12,17.12,0,0,0-.09-4.37,16.62,16.62,0,0,0-5-9.07,24.52,24.52,0,0,0-9.12-5.18c-1.29-.43-2.35-.71-3.09-.89a7.68,7.68,0,0,1-1.15-.31,1.18,1.18,0,0,1,.31,0c.2,0,.49.07.87.15a29,29,0,0,1,3.13.79,23.75,23.75,0,0,1,9.29,5.16,17.39,17.39,0,0,1,3.53,4.71,14.88,14.88,0,0,1,1.49,4.57,12,12,0,0,1,.07,3.24c0,.38-.11.67-.14.87A1.1,1.1,0,0,1,225.55,205.88Z"/><path class="cls-6" d="M75.36,141.75a4.39,4.39,0,0,1-.16-.93c-.08-.67-.19-1.53-.31-2.56-.28-2.15-.7-5.13-1.3-8.39s-1.26-6.19-1.77-8.3c-.25-1-.45-1.85-.61-2.5a4.62,4.62,0,0,1-.19-.93,6.35,6.35,0,0,1,.32.89c.18.58.43,1.43.72,2.48.57,2.1,1.27,5,1.87,8.3s1,6.26,1.2,8.43c.11,1.08.18,2,.21,2.57A6.11,6.11,0,0,1,75.36,141.75Z"/><path class="cls-6" d="M235.85,179.09a9,9,0,0,1-1.07-.43,25.71,25.71,0,0,0-3-1A23.65,23.65,0,0,0,212,180.88a26.49,26.49,0,0,0-2.5,1.92,8.53,8.53,0,0,1-.88.76s.06-.09.19-.24.33-.36.6-.62a22.11,22.11,0,0,1,2.45-2,23,23,0,0,1,20.05-3.29,22.43,22.43,0,0,1,3,1.14c.34.16.59.31.77.4S235.86,179.08,235.85,179.09Z"/><path class="cls-6" d="M211.15,178.4s-.07-.08-.18-.25-.3-.45-.49-.75c-.43-.71-1-1.65-1.72-2.79-1.46-2.36-3.47-5.62-6-9-1.27-1.68-2.54-3.25-3.61-4.75a30,30,0,0,1-2.57-4.16,17,17,0,0,1-1.2-3.07,8.62,8.62,0,0,1-.2-.87,1.43,1.43,0,0,1,0-.31,10.66,10.66,0,0,1,.38,1.14,19.64,19.64,0,0,0,1.29,3,31.89,31.89,0,0,0,2.61,4.08c1.07,1.48,2.35,3,3.63,4.73a94.06,94.06,0,0,1,5.95,9.07c.7,1.2,1.25,2.17,1.63,2.85l.43.79A1.1,1.1,0,0,1,211.15,178.4Z"/><path class="cls-6" d="M73.19,171.36a12.13,12.13,0,0,1-2,1.77c-1.29,1-3.1,2.41-5.11,3.91s-3.84,2.85-5.17,3.82L59.33,182a3.16,3.16,0,0,1-.61.38s.17-.19.52-.49.88-.71,1.52-1.22c1.3-1,3.1-2.4,5.11-3.91L71,172.94l1.57-1.16A6.21,6.21,0,0,1,73.19,171.36Z"/><path class="cls-6" d="M59.08,189.59s-.36-.42-1-1.18a25.24,25.24,0,0,0-3-2.95,27.25,27.25,0,0,0-12.51-5.72,32.15,32.15,0,0,0-13.79.73,38.35,38.35,0,0,0-4,1.32c-.47.17-.82.33-1.07.43a2.94,2.94,0,0,1-.38.13,1.42,1.42,0,0,1,.35-.2c.24-.11.58-.29,1.05-.48a30.85,30.85,0,0,1,4-1.43,31.23,31.23,0,0,1,13.91-.84,26.64,26.64,0,0,1,12.61,5.88,21.66,21.66,0,0,1,3,3c.33.39.54.72.7.93A1.33,1.33,0,0,1,59.08,189.59Z"/><path class="cls-6" d="M56.83,180.92a1.14,1.14,0,0,1-.21-.3l-.54-.92c-.12-.2-.25-.42-.38-.66s-.33-.48-.51-.76a22.1,22.1,0,0,0-1.27-1.81l-.78-1c-.28-.36-.6-.69-.91-1.06-.62-.75-1.36-1.46-2.13-2.23a39.38,39.38,0,0,0-5.56-4.32,38.86,38.86,0,0,0-6.31-3.13c-1-.36-2-.72-2.92-1-.47-.12-.91-.27-1.35-.36l-1.26-.26a22,22,0,0,0-2.19-.36c-.32,0-.62-.1-.9-.12l-.76-.06-1.06-.09a1.61,1.61,0,0,1-.37,0s.13,0,.37,0l1.06,0,.77,0c.28,0,.59.06.91.1a21.56,21.56,0,0,1,2.21.31l1.28.24c.44.09.89.23,1.36.34.95.22,1.93.58,3,.93a37.63,37.63,0,0,1,6.39,3.14,37.34,37.34,0,0,1,5.59,4.39c.77.78,1.51,1.5,2.12,2.26.32.37.64.72.91,1.08l.77,1c.51.66.88,1.31,1.24,1.86.17.28.34.53.48.78l.36.68.48.94A1.64,1.64,0,0,1,56.83,180.92Z"/><path class="cls-6" d="M203.85,109.37a1.56,1.56,0,0,1-.17.35c-.14.25-.32.56-.55.94s-.54.9-.85,1.5-.71,1.25-1.09,2c-.79,1.49-1.64,3.32-2.51,5.38s-1.68,4.38-2.41,6.85-1.25,4.88-1.66,7.08-.64,4.2-.78,5.88c-.1.84-.13,1.61-.17,2.28s-.07,1.25-.09,1.72,0,.8,0,1.09a2.28,2.28,0,0,1,0,.38s0-.13,0-.38,0-.65,0-1.09,0-1.06,0-1.73,0-1.44.12-2.29c.11-1.69.35-3.7.72-5.92a63.16,63.16,0,0,1,4.09-14c.89-2.06,1.77-3.88,2.59-5.37.39-.75.79-1.41,1.13-2s.65-1.07.91-1.47l.6-.91A1.85,1.85,0,0,1,203.85,109.37Z"/><path class="cls-1" d="M82,83.71s-5.43-8.51,0-15.13,39-13.25,41.38-13.72,14.67-2.13,16.08-1.65,19.87,9.45,26.72,13.95S183.72,78.79,177,87.49c-6.94,9-29.07,33-29.07,33l-15.34,17.35S117,118,113.42,114.92,82,83.71,82,83.71Z"/><path class="cls-7" d="M82,83.71s-5.43-8.51,0-15.13,39-13.25,41.38-13.72,14.67-2.13,16.08-1.65,19.87,9.45,26.72,13.95,17,12.32,11.43,19.67C170.73,95.9,149,119.25,149,119.25l-16.45,18.61S117,118,113.42,114.92,82,83.71,82,83.71Z"/><path class="cls-1" d="M94,61.63s-.6,11.75.21,15.86,14.88,27.48,22.86,33.05,8.7,7.79,15.56,6,10.21-7.63,13.76-11.84,11.71-11.53,13.86-18.09,4.11-20.5,4.11-20.5L137.45,52.5C124.13,52.93,109.29,56.78,94,61.63Z"/><path class="cls-8" d="M94,61.63s-.6,11.75.21,15.86,14.88,27.48,22.86,33.05,8.7,7.79,15.56,6,10.21-7.63,13.76-11.84,11.71-11.53,13.86-18.09,4.11-20.5,4.11-20.5L137.45,52.5C124.13,52.93,109.29,56.78,94,61.63Z"/><path class="cls-4" d="M128.81,14.58h0c-16.21.26-29.3,12.89-29.59,28.56-.25,14-.35,29.43.23,36.89,1.21,15.48,17.4,16.9,17.4,16.9l.14,9.48c0,1.56-.12,4-.12,4,7.45,5.27,9,7.89,15.71,6.12,6.85-1.81,10.21-7.63,13.77-11.84,2.9-3.43,8.86-8.94,12.12-14.42L158.66,44C159.05,27.78,145.55,14.5,128.81,14.58Z"/><path class="cls-5" d="M99,64.22s15.67-5.1,25.4-5.34c6-.15,34.15,8,34.15,8V64.23s-21.14-11-35.27-9.37A100,100,0,0,0,99,60.77Z"/><path class="cls-5" d="M116.87,97a38.29,38.29,0,0,0,20.52-7s-4.37,11.62-20.45,11.21Z"/><path class="cls-2" d="M104.3,52c.29.28,2-1,4.47-1s4.3,1.1,4.56.81-.17-.65-1-1.19a6.51,6.51,0,0,0-3.66-1,6.21,6.21,0,0,0-3.55,1.19C104.4,51.35,104.16,51.88,104.3,52Z"/><path class="cls-2" d="M128.72,51.17c.29.28,2-1,4.44-1.13s4.33,1,4.58.72c.13-.13-.18-.64-1-1.16a6.41,6.41,0,0,0-3.68-.94,6.17,6.17,0,0,0-3.52,1.26C128.81,50.52,128.57,51.05,128.72,51.17Z"/><path class="cls-2" d="M119.68,67.83a17.83,17.83,0,0,0-4.05-.45c-.63,0-1.23-.11-1.37-.51a3.08,3.08,0,0,1,.31-1.83q.74-2.27,1.56-4.74c2.15-6.75,3.67-12.29,3.38-12.37S117.26,53.26,115.1,60c-.51,1.67-1,3.25-1.47,4.77a3.39,3.39,0,0,0-.18,2.41,1.59,1.59,0,0,0,1.1.82,4.65,4.65,0,0,0,1.07.08C118.13,68.05,119.68,68,119.68,67.83Z"/><path class="cls-2" d="M127.05,45.7c.39.58,2.71-.28,5.61-.62s5.36-.12,5.59-.78c.1-.3-.45-.8-1.52-1.2a9.83,9.83,0,0,0-4.39-.42,9.48,9.48,0,0,0-4.14,1.49C127.27,44.81,126.87,45.43,127.05,45.7Z"/><path class="cls-2" d="M103.39,46c.33.63,2.25.5,4.4,1s3.88,1.28,4.44.83c.25-.22.1-.82-.57-1.5a6.75,6.75,0,0,0-3.36-1.7,6.84,6.84,0,0,0-3.76.24C103.64,45.21,103.26,45.69,103.39,46Z"/><path class="cls-2" d="M129.26,72.8c-.1.13-.68-.17-1.64-.41a7.12,7.12,0,0,0-3.75,0,6.91,6.91,0,0,0-3.12,2c-.66.72-1,1.29-1.12,1.23s-.1-.73.47-1.68a6.08,6.08,0,0,1,3.43-2.61,6.34,6.34,0,0,1,4.36.27C128.92,72.14,129.35,72.69,129.26,72.8Z"/><path class="cls-2" d="M106.59,54.09a2.23,2.23,0,0,0,2.32,2.07,2.13,2.13,0,0,0,2.2-2.11A2.23,2.23,0,0,0,108.79,52,2.13,2.13,0,0,0,106.59,54.09Z"/><path class="cls-2" d="M131,53a2.22,2.22,0,0,0,2.32,2.07,2.13,2.13,0,0,0,2.2-2.11,2.23,2.23,0,0,0-2.32-2.07A2.13,2.13,0,0,0,131,53Z"/><path class="cls-5" d="M116.87,97a38.29,38.29,0,0,0,20.52-7s-4.37,11.62-20.45,11.21Z"/><path class="cls-2" d="M104.3,52c.29.28,2-1,4.47-1s4.3,1.1,4.56.81-.17-.65-1-1.19a6.51,6.51,0,0,0-3.66-1,6.21,6.21,0,0,0-3.55,1.19C104.4,51.35,104.16,51.88,104.3,52Z"/><path class="cls-2" d="M128.72,51.17c.29.28,2-1,4.44-1.13s4.33,1,4.58.72c.13-.13-.18-.64-1-1.16a6.41,6.41,0,0,0-3.68-.94,6.17,6.17,0,0,0-3.52,1.26C128.81,50.52,128.57,51.05,128.72,51.17Z"/><path class="cls-2" d="M119.68,67.83a17.83,17.83,0,0,0-4.05-.45c-.63,0-1.23-.11-1.37-.51a3.08,3.08,0,0,1,.31-1.83q.74-2.27,1.56-4.74c2.15-6.75,3.67-12.29,3.38-12.37S117.26,53.26,115.1,60c-.51,1.67-1,3.25-1.47,4.77a3.39,3.39,0,0,0-.18,2.41,1.59,1.59,0,0,0,1.1.82,4.65,4.65,0,0,0,1.07.08C118.13,68.05,119.68,68,119.68,67.83Z"/><path class="cls-2" d="M127.05,45.7c.39.58,2.71-.28,5.61-.62s5.36-.12,5.59-.78c.1-.3-.45-.8-1.52-1.2a9.83,9.83,0,0,0-4.39-.42,9.48,9.48,0,0,0-4.14,1.49C127.27,44.81,126.87,45.43,127.05,45.7Z"/><path class="cls-2" d="M103.39,46c.33.63,2.25.5,4.4,1s3.88,1.28,4.44.83c.25-.22.1-.82-.57-1.5a6.75,6.75,0,0,0-3.36-1.7,6.84,6.84,0,0,0-3.76.24C103.64,45.21,103.26,45.69,103.39,46Z"/><path class="cls-2" d="M129.26,72.8c-.1.13-.68-.17-1.64-.41a7.12,7.12,0,0,0-3.75,0,6.91,6.91,0,0,0-3.12,2c-.66.72-1,1.29-1.12,1.23s-.1-.73.47-1.68a6.08,6.08,0,0,1,3.43-2.61,6.34,6.34,0,0,1,4.36.27C128.92,72.14,129.35,72.69,129.26,72.8Z"/><path class="cls-2" d="M106.59,54.09a2.23,2.23,0,0,0,2.32,2.07,2.13,2.13,0,0,0,2.2-2.11A2.23,2.23,0,0,0,108.79,52,2.13,2.13,0,0,0,106.59,54.09Z"/><path class="cls-2" d="M131,53a2.22,2.22,0,0,0,2.32,2.07,2.13,2.13,0,0,0,2.2-2.11,2.23,2.23,0,0,0-2.32-2.07A2.13,2.13,0,0,0,131,53Z"/><path class="cls-1" d="M178.08,74.79a53.09,53.09,0,0,1-4.39-9l-2.88-19.6S157,22.67,155.32,19.6,145.62,8,145.62,8,140.51,2.9,134.73.59a8.25,8.25,0,0,0-7.32.59c-5.68,3.4-18.14,11.12-21,15.11-3.78,5.2-12.55,22-12.55,22S91.4,46.17,89,49s-10,18-10,22.7c0,1,.45,2.8.51,3.69.22-1.8.49-4.56,1.91-6.29,5.44-6.62,39-13.24,41.38-13.71s13,1.13,14.38,1.6,21.26,6.23,28.36,10.33c5.3,3.07,11.54,7.3,13.25,12.9l-.25-.75S180.35,78.1,178.08,74.79Z"/><path class="cls-2" d="M177,87.49l.19-.26.53-.79A8.81,8.81,0,0,0,179,83.08a6.58,6.58,0,0,0-.15-2.58,10.59,10.59,0,0,0-1.34-2.79,18.94,18.94,0,0,0-2.08-2.91A18.21,18.21,0,0,0,174,73.45c-.49-.46-1-.92-1.56-1.35A57.48,57.48,0,0,0,155,62.85c-3.52-1.26-7.28-2.39-11.19-3.52a107.67,107.67,0,0,0-12.2-3,39,39,0,0,0-6.33-.56,40.31,40.31,0,0,0-6.16.54c-4,.66-7.79,1.72-11.42,2.64a158.11,158.11,0,0,0-19,5.84,18.49,18.49,0,0,0-6.37,4,10,10,0,0,0-2.62,5,7.56,7.56,0,0,0,.15,3.58c.26.78.51,1.16.48,1.17s-.06-.09-.16-.28a6.76,6.76,0,0,1-.38-.87,7.45,7.45,0,0,1-.22-3.63,10,10,0,0,1,2.61-5.1,18.4,18.4,0,0,1,6.41-4.13,153.53,153.53,0,0,1,19-5.91c3.62-.94,7.41-2,11.45-2.67a36,36,0,0,1,12.6,0A106.79,106.79,0,0,1,143.92,59c3.91,1.14,7.67,2.28,11.2,3.55,7.06,2.5,13.11,5.71,17.48,9.36.56.44,1.07.91,1.56,1.36a16.87,16.87,0,0,1,1.41,1.39,18.62,18.62,0,0,1,2.09,3A10.89,10.89,0,0,1,179,80.46a6.67,6.67,0,0,1,.13,2.64,8.59,8.59,0,0,1-1.36,3.38A7.81,7.81,0,0,1,177,87.49Z"/><path class="cls-2" d="M129.32,26.29a1.39,1.39,0,0,1-.36.1l-1,.23c-.45.09-1,.21-1.63.37s-1.37.32-2.16.55c-1.59.43-3.46,1-5.5,1.77a67.67,67.67,0,0,0-6.49,2.82A69.91,69.91,0,0,0,106,35.66c-1.81,1.2-3.4,2.34-4.69,3.37-.66.5-1.22,1-1.73,1.4s-.93.79-1.27,1.1l-.8.69a1.44,1.44,0,0,1-.3.23,1.7,1.7,0,0,1,.25-.28l.76-.74c.33-.33.74-.71,1.24-1.14s1-.94,1.7-1.45c1.27-1.05,2.85-2.23,4.67-3.45A64.12,64.12,0,0,1,112,31.82,62.48,62.48,0,0,1,118.52,29a55.14,55.14,0,0,1,5.55-1.7c.8-.22,1.53-.36,2.17-.5s1.2-.25,1.66-.32l1-.17A1.71,1.71,0,0,1,129.32,26.29Z"/><path class="cls-2" d="M142.09,18.7a2.9,2.9,0,0,1-.69.24c-.45.13-1.11.31-1.93.52-1.63.42-3.9.95-6.42,1.45s-4.82.88-6.49,1.12c-.83.12-1.51.2-2,.25a2.53,2.53,0,0,1-.73,0,3.53,3.53,0,0,1,.71-.17l2-.36c1.66-.3,4-.72,6.46-1.22s4.79-1,6.44-1.35l2-.41A3.45,3.45,0,0,1,142.09,18.7Z"/><path class="cls-2" d="M164.79,72.44s0,.06,0,.16l0,.44a15.42,15.42,0,0,1,0,1.71,24.65,24.65,0,0,1-1.26,6.16,36.14,36.14,0,0,1-4.15,8.36,91.69,91.69,0,0,1-7,9l-13.47,15.75c-1.72,2-3.12,3.61-4.12,4.75l-1.13,1.28-.3.33-.11.1.08-.12.28-.35,1.08-1.33c1-1.16,2.35-2.8,4-4.82,3.45-4.06,8.17-9.65,13.4-15.82a93.58,93.58,0,0,0,7-9,36.9,36.9,0,0,0,4.19-8.25,26.23,26.23,0,0,0,1.36-6.1c.07-.74.09-1.31.1-1.7,0-.18,0-.32,0-.44A1.08,1.08,0,0,1,164.79,72.44Z"/><path class="cls-2" d="M135.16,118.07h-.62c-.4,0-1,0-1.77-.06a24.1,24.1,0,0,1-6.37-1.46,32.41,32.41,0,0,1-8.42-4.78,48.79,48.79,0,0,1-8.3-8.47c-2.61-3.32-4.82-6.67-6.82-9.71s-3.73-5.84-5-8.28A54.24,54.24,0,0,1,95,79.42c-.28-.72-.48-1.28-.61-1.67l-.14-.43a1.45,1.45,0,0,1,0-.16s0,0,.08.14l.17.43c.14.38.37.93.67,1.64A60.82,60.82,0,0,0,98,85.22c1.33,2.41,3.07,5.18,5.08,8.22s4.24,6.37,6.83,9.66a49.74,49.74,0,0,0,8.23,8.44,32.48,32.48,0,0,0,8.31,4.8,25.16,25.16,0,0,0,6.29,1.56c.76.07,1.36.12,1.76.12l.47,0C135.11,118.05,135.16,118.06,135.16,118.07Z"/><path class="cls-2" d="M128.25,131.29l-.12-.11-.32-.35-1.22-1.37-4.48-5c-3.81-4.23-9.13-10-15.2-16.2S95.16,96.6,91,92.71l-4.94-4.58-1.34-1.24-.34-.34c-.08-.07-.12-.11-.11-.12l.13.1.37.3c.33.3.8.7,1.38,1.2,1.2,1,2.91,2.58,5,4.51,4.2,3.83,9.9,9.25,16,15.45s11.38,12,15.14,16.28c1.88,2.14,3.38,3.89,4.4,5.11l1.17,1.4.3.38C128.22,131.24,128.26,131.29,128.25,131.29Z"/><path class="cls-2" d="M177.58,86.83c.07.06-8.35,9.74-18.81,21.62s-19,21.46-19.07,21.39,8.35-9.74,18.81-21.62S177.51,86.77,177.58,86.83Z"/><g class="cls-3"><path d="M96.39,42.46C101,37.34,106.47,33,111.9,28.77A31.83,31.83,0,0,1,117.53,25c3.44-1.66,7.35-2,11.16-2.27q4.67-.32,9.35-.51a4.77,4.77,0,0,1,2.52.35,1.7,1.7,0,0,1,.83,2.17c-.43.73-1.43.81-2.27.82A67.21,67.21,0,0,0,97.68,40.94"/></g><path class="cls-6" d="M131.7,137.18c-.07.06-5.71-6.34-12.6-14.29s-12.41-14.45-12.34-14.51,5.71,6.33,12.6,14.28S131.77,137.11,131.7,137.18Z"/><path class="cls-6" d="M149.69,120.3A18.13,18.13,0,0,1,148,122c-1,1-2.46,2.43-4,4s-2.89,3.08-3.86,4.16a19.69,19.69,0,0,1-1.62,1.71,3,3,0,0,1,.36-.53c.24-.32.61-.78,1.07-1.34.93-1.12,2.26-2.64,3.8-4.24s3-3,4.09-4c.54-.49,1-.87,1.3-1.13A2.26,2.26,0,0,1,149.69,120.3Z"/><path class="cls-6" d="M145,111.05a10.58,10.58,0,0,1-1.23,1.43l-3.09,3.33-3.06,3.36a11.14,11.14,0,0,1-1.31,1.36,10.15,10.15,0,0,1,1.13-1.52c.74-.9,1.78-2.12,3-3.43s2.32-2.46,3.16-3.28A10.22,10.22,0,0,1,145,111.05Z"/><path class="cls-6" d="M137,87.82a1.16,1.16,0,0,1-.21.24l-.65.65-.48.46c-.18.17-.39.33-.61.51a16.82,16.82,0,0,1-1.53,1.17l-.94.63c-.32.22-.69.4-1.05.62a24.39,24.39,0,0,1-2.4,1.2,28.56,28.56,0,0,1-5.9,1.79,29.21,29.21,0,0,1-6.14.38,26.19,26.19,0,0,1-2.68-.29c-.41-.08-.82-.12-1.2-.21l-1.09-.27a18.15,18.15,0,0,1-1.85-.56c-.27-.1-.52-.17-.75-.26l-.61-.27-.84-.39a1.83,1.83,0,0,1-.28-.15,1,1,0,0,1,.31.09l.86.32.62.24.75.23a17.14,17.14,0,0,0,1.85.51l1.08.25c.38.08.78.12,1.19.18a26.44,26.44,0,0,0,2.65.26,29.28,29.28,0,0,0,6.07-.4A30,30,0,0,0,129,93c.85-.39,1.67-.74,2.39-1.16.36-.21.73-.39,1-.59l.94-.61c.61-.37,1.1-.79,1.55-1.12.22-.17.44-.33.62-.48l.5-.44.69-.6C136.94,87.87,137,87.81,137,87.82Z"/><path class="cls-6" d="M154.56,61.42s-.06,0-.17,0l-.47-.13c-.41-.12-1-.28-1.78-.54-1.55-.48-3.77-1.27-6.49-2.25a90.52,90.52,0,0,0-9.71-3,47.34,47.34,0,0,0-5.9-1,52.39,52.39,0,0,0-6.43-.16,26.15,26.15,0,0,0-6.33.95l-5.82,1.53c-3.7,1-7,1.93-9.81,2.73l-6.59,1.92-1.79.52-.47.12-.16,0s0,0,.15-.07l.46-.16L95,61.28c1.55-.5,3.79-1.19,6.57-2s6.09-1.79,9.79-2.8l5.81-1.56a25.77,25.77,0,0,1,6.41-1,49.28,49.28,0,0,1,6.47.17,46.32,46.32,0,0,1,6,1,87.94,87.94,0,0,1,9.71,3.09c2.72,1,4.91,1.83,6.45,2.35.76.28,1.36.46,1.77.6l.45.17A.7.7,0,0,1,154.56,61.42Z"/></g></g></svg>